<svg xmlns="http://www.w3.org/2000/svg" viewBox="0 0 1440 320"><path fill="#068787" fill-opacity="1" d="M0,128L17.1,154.7C34.3,181,69,235,103,224C137.1,213,171,139,206,144C240,149,274,235,309,229.3C342.9,224,377,128,411,96C445.7,64,480,96,514,112C548.6,128,583,128,617,117.3C651.4,107,686,85,720,96C754.3,107,789,149,823,170.7C857.1,192,891,192,926,181.3C960,171,994,149,1029,170.7C1062.9,192,1097,256,1131,250.7C1165.7,245,1200,171,1234,154.7C1268.6,139,1303,181,1337,202.7C1371.4,224,1406,224,1423,224L1440,224L1440,320L1422.9,320C1405.7,320,1371,320,1337,320C1302.9,320,1269,320,1234,320C1200,320,1166,320,1131,320C1097.1,320,1063,320,1029,320C994.3,320,960,320,926,320C891.4,320,857,320,823,320C788.6,320,754,320,720,320C685.7,320,651,320,617,320C582.9,320,549,320,514,320C480,320,446,320,411,320C377.1,320,343,320,309,320C274.3,320,240,320,206,320C171.4,320,137,320,103,320C68.6,320,34,320,17,320L0,320Z"></path></svg>