<svg id="visual" preserveAspectRatio="none" viewBox="0 0 1600 150" width="1600" height="150" xmlns="http://www.w3.org/2000/svg" xmlns:xlink="http://www.w3.org/1999/xlink" version="1.1"><path d="M0 72L16.7 69.5C33.3 67 66.7 62 100 57.2C133.3 52.3 166.7 47.7 200 49.7C233.3 51.7 266.7 60.3 300 59.7C333.3 59 366.7 49 400 46.5C433.3 44 466.7 49 500 50.2C533.3 51.3 566.7 48.7 600 44.8C633.3 41 666.7 36 700 38.5C733.3 41 766.7 51 800 56C833.3 61 866.7 61 900 58.3C933.3 55.7 966.7 50.3 1000 51.3C1033.3 52.3 1066.7 59.7 1100 61.2C1133.3 62.7 1166.7 58.3 1200 59.3C1233.3 60.3 1266.7 66.7 1300 68.8C1333.3 71 1366.7 69 1400 65.3C1433.3 61.7 1466.7 56.3 1500 57C1533.3 57.7 1566.7 64.3 1583.3 67.7L1600 71L1600 151L1583.3 151C1566.7 151 1533.3 151 1500 151C1466.7 151 1433.3 151 1400 151C1366.7 151 1333.3 151 1300 151C1266.7 151 1233.3 151 1200 151C1166.7 151 1133.3 151 1100 151C1066.7 151 1033.3 151 1000 151C966.7 151 933.3 151 900 151C866.7 151 833.3 151 800 151C766.7 151 733.3 151 700 151C666.7 151 633.3 151 600 151C566.7 151 533.3 151 500 151C466.7 151 433.3 151 400 151C366.7 151 333.3 151 300 151C266.7 151 233.3 151 200 151C166.7 151 133.3 151 100 151C66.7 151 33.3 151 16.7 151L0 151Z" fill="#36acac"></path><path d="M0 67L16.7 68.5C33.3 70 66.7 73 100 75C133.3 77 166.7 78 200 78.8C233.3 79.7 266.7 80.3 300 79.8C333.3 79.3 366.7 77.7 400 77.5C433.3 77.3 466.7 78.7 500 79.7C533.3 80.7 566.7 81.3 600 77.5C633.3 73.7 666.7 65.3 700 64.2C733.3 63 766.7 69 800 69.3C833.3 69.7 866.7 64.3 900 61.5C933.3 58.7 966.7 58.3 1000 59C1033.3 59.7 1066.7 61.3 1100 63.3C1133.3 65.3 1166.7 67.7 1200 66.7C1233.3 65.7 1266.7 61.3 1300 59.3C1333.3 57.3 1366.7 57.7 1400 62.5C1433.3 67.3 1466.7 76.7 1500 74.7C1533.3 72.7 1566.7 59.3 1583.3 52.7L1600 46L1600 151L1583.3 151C1566.7 151 1533.3 151 1500 151C1466.7 151 1433.3 151 1400 151C1366.7 151 1333.3 151 1300 151C1266.7 151 1233.3 151 1200 151C1166.7 151 1133.3 151 1100 151C1066.7 151 1033.3 151 1000 151C966.7 151 933.3 151 900 151C866.7 151 833.3 151 800 151C766.7 151 733.3 151 700 151C666.7 151 633.3 151 600 151C566.7 151 533.3 151 500 151C466.7 151 433.3 151 400 151C366.7 151 333.3 151 300 151C266.7 151 233.3 151 200 151C166.7 151 133.3 151 100 151C66.7 151 33.3 151 16.7 151L0 151Z" fill="#2ba1a1"></path><path d="M0 86L16.7 86.8C33.3 87.7 66.7 89.3 100 86.8C133.3 84.3 166.7 77.7 200 72.8C233.3 68 266.7 65 300 63.3C333.3 61.7 366.7 61.3 400 65.3C433.3 69.3 466.7 77.7 500 79.7C533.3 81.7 566.7 77.3 600 76.5C633.3 75.7 666.7 78.3 700 82.3C733.3 86.3 766.7 91.7 800 88.2C833.3 84.7 866.7 72.3 900 66.5C933.3 60.7 966.7 61.3 1000 65.3C1033.3 69.3 1066.7 76.7 1100 76.3C1133.3 76 1166.7 68 1200 64.2C1233.3 60.3 1266.7 60.7 1300 65.8C1333.3 71 1366.7 81 1400 85.2C1433.3 89.3 1466.7 87.7 1500 86.2C1533.3 84.7 1566.7 83.3 1583.3 82.7L1600 82L1600 151L1583.3 151C1566.7 151 1533.3 151 1500 151C1466.7 151 1433.3 151 1400 151C1366.7 151 1333.3 151 1300 151C1266.7 151 1233.3 151 1200 151C1166.7 151 1133.3 151 1100 151C1066.7 151 1033.3 151 1000 151C966.7 151 933.3 151 900 151C866.7 151 833.3 151 800 151C766.7 151 733.3 151 700 151C666.7 151 633.3 151 600 151C566.7 151 533.3 151 500 151C466.7 151 433.3 151 400 151C366.7 151 333.3 151 300 151C266.7 151 233.3 151 200 151C166.7 151 133.3 151 100 151C66.7 151 33.3 151 16.7 151L0 151Z" fill="#209797"></path><path d="M0 96L16.7 95.3C33.3 94.7 66.7 93.3 100 90.3C133.3 87.3 166.7 82.7 200 83.5C233.3 84.3 266.7 90.7 300 92.5C333.3 94.3 366.7 91.7 400 92C433.3 92.3 466.7 95.7 500 92.8C533.3 90 566.7 81 600 77.7C633.3 74.3 666.7 76.7 700 80C733.3 83.3 766.7 87.7 800 90.2C833.3 92.7 866.7 93.3 900 90C933.3 86.7 966.7 79.3 1000 75.8C1033.3 72.3 1066.7 72.7 1100 73C1133.3 73.3 1166.7 73.7 1200 76C1233.3 78.3 1266.7 82.7 1300 87.8C1333.3 93 1366.7 99 1400 99.8C1433.3 100.7 1466.7 96.3 1500 94C1533.3 91.7 1566.7 91.3 1583.3 91.2L1600 91L1600 151L1583.3 151C1566.7 151 1533.3 151 1500 151C1466.7 151 1433.3 151 1400 151C1366.7 151 1333.3 151 1300 151C1266.7 151 1233.3 151 1200 151C1166.7 151 1133.3 151 1100 151C1066.7 151 1033.3 151 1000 151C966.7 151 933.3 151 900 151C866.7 151 833.3 151 800 151C766.7 151 733.3 151 700 151C666.7 151 633.3 151 600 151C566.7 151 533.3 151 500 151C466.7 151 433.3 151 400 151C366.7 151 333.3 151 300 151C266.7 151 233.3 151 200 151C166.7 151 133.3 151 100 151C66.7 151 33.3 151 16.7 151L0 151Z" fill="#118c8c"></path><path d="M0 107L16.7 105.2C33.3 103.3 66.7 99.7 100 96C133.3 92.3 166.7 88.7 200 88C233.3 87.3 266.7 89.7 300 92.7C333.3 95.7 366.7 99.3 400 98.5C433.3 97.7 466.7 92.3 500 91.2C533.3 90 566.7 93 600 97.3C633.3 101.7 666.7 107.3 700 109.2C733.3 111 766.7 109 800 107.5C833.3 106 866.7 105 900 105C933.3 105 966.7 106 1000 104.3C1033.3 102.7 1066.7 98.3 1100 95.3C1133.3 92.3 1166.7 90.7 1200 94.2C1233.3 97.7 1266.7 106.3 1300 108.7C1333.3 111 1366.7 107 1400 104.5C1433.3 102 1466.7 101 1500 100C1533.3 99 1566.7 98 1583.3 97.5L1600 97L1600 151L1583.3 151C1566.7 151 1533.3 151 1500 151C1466.7 151 1433.3 151 1400 151C1366.7 151 1333.3 151 1300 151C1266.7 151 1233.3 151 1200 151C1166.7 151 1133.3 151 1100 151C1066.7 151 1033.3 151 1000 151C966.7 151 933.3 151 900 151C866.7 151 833.3 151 800 151C766.7 151 733.3 151 700 151C666.7 151 633.3 151 600 151C566.7 151 533.3 151 500 151C466.7 151 433.3 151 400 151C366.7 151 333.3 151 300 151C266.7 151 233.3 151 200 151C166.7 151 133.3 151 100 151C66.7 151 33.3 151 16.7 151L0 151Z" fill="#068282"></path><path d="M0 113L16.7 111.5C33.3 110 66.7 107 100 108.8C133.3 110.7 166.7 117.3 200 120.3C233.3 123.3 266.7 122.7 300 122.5C333.3 122.3 366.7 122.7 400 120.7C433.3 118.7 466.7 114.3 500 111.5C533.3 108.7 566.7 107.3 600 106.8C633.3 106.3 666.7 106.7 700 109.3C733.3 112 766.7 117 800 120C833.3 123 866.7 124 900 121.7C933.3 119.3 966.7 113.7 1000 111.7C1033.3 109.7 1066.7 111.3 1100 111C1133.3 110.7 1166.7 108.3 1200 108C1233.3 107.7 1266.7 109.3 1300 111.7C1333.3 114 1366.7 117 1400 117.7C1433.3 118.3 1466.7 116.7 1500 113.5C1533.3 110.3 1566.7 105.7 1583.3 103.3L1600 101L1600 151L1583.3 151C1566.7 151 1533.3 151 1500 151C1466.7 151 1433.3 151 1400 151C1366.7 151 1333.3 151 1300 151C1266.7 151 1233.3 151 1200 151C1166.7 151 1133.3 151 1100 151C1066.7 151 1033.3 151 1000 151C966.7 151 933.3 151 900 151C866.7 151 833.3 151 800 151C766.7 151 733.3 151 700 151C666.7 151 633.3 151 600 151C566.7 151 533.3 151 500 151C466.7 151 433.3 151 400 151C366.7 151 333.3 151 300 151C266.7 151 233.3 151 200 151C166.7 151 133.3 151 100 151C66.7 151 33.3 151 16.7 151L0 151Z" fill="#067777"></path><path d="M0 129L16.7 127.3C33.3 125.7 66.7 122.3 100 121.7C133.3 121 166.7 123 200 123C233.3 123 266.7 121 300 118.8C333.3 116.7 366.7 114.3 400 116.8C433.3 119.3 466.7 126.7 500 127.5C533.3 128.3 566.7 122.7 600 122.2C633.3 121.7 666.7 126.3 700 127.5C733.3 128.7 766.7 126.3 800 126.7C833.3 127 866.7 130 900 128.5C933.3 127 966.7 121 1000 121C1033.3 121 1066.7 127 1100 127.5C1133.3 128 1166.7 123 1200 120C1233.3 117 1266.7 116 1300 117.3C1333.3 118.7 1366.7 122.3 1400 123.5C1433.3 124.7 1466.7 123.3 1500 121.5C1533.3 119.7 1566.7 117.3 1583.3 116.2L1600 115L1600 151L1583.3 151C1566.7 151 1533.3 151 1500 151C1466.7 151 1433.3 151 1400 151C1366.7 151 1333.3 151 1300 151C1266.7 151 1233.3 151 1200 151C1166.7 151 1133.3 151 1100 151C1066.7 151 1033.3 151 1000 151C966.7 151 933.3 151 900 151C866.7 151 833.3 151 800 151C766.7 151 733.3 151 700 151C666.7 151 633.3 151 600 151C566.7 151 533.3 151 500 151C466.7 151 433.3 151 400 151C366.7 151 333.3 151 300 151C266.7 151 233.3 151 200 151C166.7 151 133.3 151 100 151C66.7 151 33.3 151 16.7 151L0 151Z" fill="#056d6d"></path><path d="M0 137L16.7 136.3C33.3 135.7 66.7 134.3 100 133.5C133.3 132.7 166.7 132.3 200 133.5C233.3 134.7 266.7 137.3 300 138.5C333.3 139.7 366.7 139.3 400 138.7C433.3 138 466.7 137 500 136C533.3 135 566.7 134 600 133.2C633.3 132.3 666.7 131.7 700 132C733.3 132.3 766.7 133.7 800 133C833.3 132.3 866.7 129.7 900 129.2C933.3 128.7 966.7 130.3 1000 130.5C1033.3 130.7 1066.7 129.3 1100 129.2C1133.3 129 1166.7 130 1200 130.3C1233.3 130.7 1266.7 130.3 1300 132C1333.3 133.7 1366.7 137.3 1400 138.3C1433.3 139.3 1466.7 137.7 1500 136.8C1533.3 136 1566.7 136 1583.3 136L1600 136L1600 151L1583.3 151C1566.7 151 1533.3 151 1500 151C1466.7 151 1433.3 151 1400 151C1366.7 151 1333.3 151 1300 151C1266.7 151 1233.3 151 1200 151C1166.7 151 1133.3 151 1100 151C1066.7 151 1033.3 151 1000 151C966.7 151 933.3 151 900 151C866.7 151 833.3 151 800 151C766.7 151 733.3 151 700 151C666.7 151 633.3 151 600 151C566.7 151 533.3 151 500 151C466.7 151 433.3 151 400 151C366.7 151 333.3 151 300 151C266.7 151 233.3 151 200 151C166.7 151 133.3 151 100 151C66.7 151 33.3 151 16.7 151L0 151Z" fill="#056363"></path></svg>