<svg xmlns="http://www.w3.org/2000/svg" viewBox="0 0 1440 320">
  <path fill="#068787" fill-opacity="1" d="M0,96L13.3,128C26.7,160,53,224,80,261.3C106.7,299,133,309,160,304C186.7,299,213,277,240,245.3C266.7,213,293,171,320,154.7C346.7,139,373,149,400,138.7C426.7,128,453,96,480,117.3C506.7,139,533,213,560,218.7C586.7,224,613,160,640,133.3C666.7,107,693,117,720,144C746.7,171,773,213,800,197.3C826.7,181,853,107,880,90.7C906.7,75,933,117,960,154.7C986.7,192,1013,224,1040,218.7C1066.7,213,1093,171,1120,133.3C1146.7,96,1173,64,1200,80C1226.7,96,1253,160,1280,202.7C1306.7,245,1333,267,1360,240C1386.7,213,1413,139,1427,101.3L1440,64L1440,0L1426.7,0C1413.3,0,1387,0,1360,0C1333.3,0,1307,0,1280,0C1253.3,0,1227,0,1200,0C1173.3,0,1147,0,1120,0C1093.3,0,1067,0,1040,0C1013.3,0,987,0,960,0C933.3,0,907,0,880,0C853.3,0,827,0,800,0C773.3,0,747,0,720,0C693.3,0,667,0,640,0C613.3,0,587,0,560,0C533.3,0,507,0,480,0C453.3,0,427,0,400,0C373.3,0,347,0,320,0C293.3,0,267,0,240,0C213.3,0,187,0,160,0C133.3,0,107,0,80,0C53.3,0,27,0,13,0L0,0Z"></path>
</svg>