<svg id="visual" viewBox="0 0 2560 1600" width="2560" height="1600" xmlns="http://www.w3.org/2000/svg" xmlns:xlink="http://www.w3.org/1999/xlink" version="1.1"><path d="M0 209L38.8 219.7C77.7 230.3 155.3 251.7 232.8 254.3C310.3 257 387.7 241 465.2 249C542.7 257 620.3 289 698 273C775.7 257 853.3 193 931 163.7C1008.7 134.3 1086.3 139.7 1163.8 155.7C1241.3 171.7 1318.7 198.3 1396.2 222.3C1473.7 246.3 1551.3 267.7 1629 286.3C1706.7 305 1784.3 321 1862 318.3C1939.7 315.7 2017.3 294.3 2094.8 289C2172.3 283.7 2249.7 294.3 2327.2 283.7C2404.7 273 2482.3 241 2521.2 225L2560 209L2560 0L2521.2 0C2482.3 0 2404.7 0 2327.2 0C2249.7 0 2172.3 0 2094.8 0C2017.3 0 1939.7 0 1862 0C1784.3 0 1706.7 0 1629 0C1551.3 0 1473.7 0 1396.2 0C1318.7 0 1241.3 0 1163.8 0C1086.3 0 1008.7 0 931 0C853.3 0 775.7 0 698 0C620.3 0 542.7 0 465.2 0C387.7 0 310.3 0 232.8 0C155.3 0 77.7 0 38.8 0L0 0Z" fill="#ff94bb"></path><path d="M0 385L38.8 395.7C77.7 406.3 155.3 427.7 232.8 427.7C310.3 427.7 387.7 406.3 465.2 419.7C542.7 433 620.3 481 698 462.3C775.7 443.7 853.3 358.3 931 326.3C1008.7 294.3 1086.3 315.7 1163.8 342.3C1241.3 369 1318.7 401 1396.2 409C1473.7 417 1551.3 401 1629 403.7C1706.7 406.3 1784.3 427.7 1862 425C1939.7 422.3 2017.3 395.7 2094.8 409C2172.3 422.3 2249.7 475.7 2327.2 489C2404.7 502.3 2482.3 475.7 2521.2 462.3L2560 449L2560 207L2521.2 223C2482.3 239 2404.7 271 2327.2 281.7C2249.7 292.3 2172.3 281.7 2094.8 287C2017.3 292.3 1939.7 313.7 1862 316.3C1784.3 319 1706.7 303 1629 284.3C1551.3 265.7 1473.7 244.3 1396.2 220.3C1318.7 196.3 1241.3 169.7 1163.8 153.7C1086.3 137.7 1008.7 132.3 931 161.7C853.3 191 775.7 255 698 271C620.3 287 542.7 255 465.2 247C387.7 239 310.3 255 232.8 252.3C155.3 249.7 77.7 228.3 38.8 217.7L0 207Z" fill="#f682ac"></path><path d="M0 945L38.8 905C77.7 865 155.3 785 232.8 811.7C310.3 838.3 387.7 971.7 465.2 1003.7C542.7 1035.7 620.3 966.3 698 883.7C775.7 801 853.3 705 931 705C1008.7 705 1086.3 801 1163.8 825C1241.3 849 1318.7 801 1396.2 766.3C1473.7 731.7 1551.3 710.3 1629 694.3C1706.7 678.3 1784.3 667.7 1862 657C1939.7 646.3 2017.3 635.7 2094.8 683.7C2172.3 731.7 2249.7 838.3 2327.2 873C2404.7 907.7 2482.3 870.3 2521.2 851.7L2560 833L2560 447L2521.2 460.3C2482.3 473.7 2404.7 500.3 2327.2 487C2249.7 473.7 2172.3 420.3 2094.8 407C2017.3 393.7 1939.7 420.3 1862 423C1784.3 425.7 1706.7 404.3 1629 401.7C1551.3 399 1473.7 415 1396.2 407C1318.7 399 1241.3 367 1163.8 340.3C1086.3 313.7 1008.7 292.3 931 324.3C853.3 356.3 775.7 441.7 698 460.3C620.3 479 542.7 431 465.2 417.7C387.7 404.3 310.3 425.7 232.8 425.7C155.3 425.7 77.7 404.3 38.8 393.7L0 383Z" fill="#ec709e"></path><path d="M0 1201L38.8 1211.7C77.7 1222.3 155.3 1243.7 232.8 1273C310.3 1302.3 387.7 1339.7 465.2 1366.3C542.7 1393 620.3 1409 698 1374.3C775.7 1339.7 853.3 1254.3 931 1225C1008.7 1195.7 1086.3 1222.3 1163.8 1270.3C1241.3 1318.3 1318.7 1387.7 1396.2 1406.3C1473.7 1425 1551.3 1393 1629 1347.7C1706.7 1302.3 1784.3 1243.7 1862 1251.7C1939.7 1259.7 2017.3 1334.3 2094.8 1347.7C2172.3 1361 2249.7 1313 2327.2 1313C2404.7 1313 2482.3 1361 2521.2 1385L2560 1409L2560 831L2521.2 849.7C2482.3 868.3 2404.7 905.7 2327.2 871C2249.7 836.3 2172.3 729.7 2094.8 681.7C2017.3 633.7 1939.7 644.3 1862 655C1784.3 665.7 1706.7 676.3 1629 692.3C1551.3 708.3 1473.7 729.7 1396.2 764.3C1318.7 799 1241.3 847 1163.8 823C1086.3 799 1008.7 703 931 703C853.3 703 775.7 799 698 881.7C620.3 964.3 542.7 1033.7 465.2 1001.7C387.7 969.7 310.3 836.3 232.8 809.7C155.3 783 77.7 863 38.8 903L0 943Z" fill="#e35d90"></path><path d="M0 1601L38.8 1601C77.7 1601 155.3 1601 232.8 1601C310.3 1601 387.7 1601 465.2 1601C542.7 1601 620.3 1601 698 1601C775.7 1601 853.3 1601 931 1601C1008.7 1601 1086.3 1601 1163.8 1601C1241.3 1601 1318.7 1601 1396.2 1601C1473.7 1601 1551.3 1601 1629 1601C1706.7 1601 1784.3 1601 1862 1601C1939.7 1601 2017.3 1601 2094.8 1601C2172.3 1601 2249.7 1601 2327.2 1601C2404.7 1601 2482.3 1601 2521.2 1601L2560 1601L2560 1407L2521.2 1383C2482.3 1359 2404.7 1311 2327.2 1311C2249.7 1311 2172.3 1359 2094.8 1345.7C2017.3 1332.3 1939.7 1257.7 1862 1249.7C1784.3 1241.7 1706.7 1300.3 1629 1345.7C1551.3 1391 1473.7 1423 1396.2 1404.3C1318.7 1385.7 1241.3 1316.3 1163.8 1268.3C1086.3 1220.3 1008.7 1193.7 931 1223C853.3 1252.3 775.7 1337.7 698 1372.3C620.3 1407 542.7 1391 465.2 1364.3C387.7 1337.7 310.3 1300.3 232.8 1271C155.3 1241.7 77.7 1220.3 38.8 1209.7L0 1199Z" fill="#d94982"></path></svg>