<svg id="visual" viewBox="0 0 2560 1600" width="2560" height="1600" xmlns="http://www.w3.org/2000/svg" xmlns:xlink="http://www.w3.org/1999/xlink" version="1.1"><g stroke-width="1" stroke-linejoin="bevel"><path d="M1250 819.5L1222 790.5L1185 834.5Z" fill="#3e91d2" stroke="#3e91d2"></path><path d="M1185 834.5L1236 918.5L1250 819.5Z" fill="#4073ac" stroke="#4073ac"></path><path d="M1236 918.5L1338 927.6L1250 819.5Z" fill="#3b5786" stroke="#3b5786"></path><path d="M1185 834.5L1126 958.6L1236 918.5Z" fill="#3d5e90" stroke="#3d5e90"></path><path d="M1310 1074.7L1386 1009.7L1338 927.6Z" fill="#3b5786" stroke="#3b5786"></path><path d="M1338 927.6L1367 741.5L1250 819.5Z" fill="#3e6599" stroke="#3e6599"></path><path d="M1250 819.5L1367 741.5L1222 790.5Z" fill="#3c99dc" stroke="#3c99dc"></path><path d="M1167 570.4L1035 763.5L1222 790.5Z" fill="#407ab6" stroke="#407ab6"></path><path d="M1222 790.5L1035 763.5L1185 834.5Z" fill="#3e91d2" stroke="#3e91d2"></path><path d="M1185 834.5L1065 949.6L1126 958.6Z" fill="#3e91d2" stroke="#3e91d2"></path><path d="M1386 1009.7L1374 935.5L1338 927.6Z" fill="#3f89c9" stroke="#3f89c9"></path><path d="M1338 927.6L1374 935.5L1367 741.5Z" fill="#3b5786" stroke="#3b5786"></path><path d="M1017 797.5L1065 949.6L1185 834.5Z" fill="#39507d" stroke="#39507d"></path><path d="M1035 763.5L1017 797.5L1185 834.5Z" fill="#3e91d2" stroke="#3e91d2"></path><path d="M1367 741.5L1261 588.3L1222 790.5Z" fill="#4073ac" stroke="#4073ac"></path><path d="M1310 1074.7L1236 918.5L1126 958.6Z" fill="#3e91d2" stroke="#3e91d2"></path><path d="M1310 1074.7L1338 927.6L1236 918.5Z" fill="#39507d" stroke="#39507d"></path><path d="M1530 822.5L1426 638.4L1367 741.5Z" fill="#4082bf" stroke="#4082bf"></path><path d="M1261 588.3L1167 570.4L1222 790.5Z" fill="#3b5786" stroke="#3b5786"></path><path d="M1367 741.5L1347 591.4L1261 588.3Z" fill="#3e91d2" stroke="#3e91d2"></path><path d="M1261 588.3L1167 546.3L1167 570.4Z" fill="#3d5e90" stroke="#3d5e90"></path><path d="M1072 1170.7L1310 1074.7L1126 958.6Z" fill="#3d5e90" stroke="#3d5e90"></path><path d="M1310 1074.7L1396 1028.6L1386 1009.7Z" fill="#407ab6" stroke="#407ab6"></path><path d="M1529 932.6L1504 843.5L1374 935.5Z" fill="#3c99dc" stroke="#3c99dc"></path><path d="M1367 741.5L1426 638.4L1347 591.4Z" fill="#3c99dc" stroke="#3c99dc"></path><path d="M1504 843.5L1367 741.5L1374 935.5Z" fill="#4082bf" stroke="#4082bf"></path><path d="M1309 467.2L1167 546.3L1261 588.3Z" fill="#3d5e90" stroke="#3d5e90"></path><path d="M1167 570.4L983 590.4L1035 763.5Z" fill="#4073ac" stroke="#4073ac"></path><path d="M1529 932.6L1374 935.5L1386 1009.7Z" fill="#3e6599" stroke="#3e6599"></path><path d="M1529 932.6L1530 822.5L1504 843.5Z" fill="#3b5786" stroke="#3b5786"></path><path d="M1504 843.5L1530 822.5L1367 741.5Z" fill="#3e6599" stroke="#3e6599"></path><path d="M1167 546.3L983 590.4L1167 570.4Z" fill="#3f6ca2" stroke="#3f6ca2"></path><path d="M1035 763.5L863 754.5L1017 797.5Z" fill="#407ab6" stroke="#407ab6"></path><path d="M1396 1028.6L1529 932.6L1386 1009.7Z" fill="#3f89c9" stroke="#3f89c9"></path><path d="M863 754.5L864 887.6L1017 797.5Z" fill="#407ab6" stroke="#407ab6"></path><path d="M1017 797.5L864 887.6L1065 949.6Z" fill="#407ab6" stroke="#407ab6"></path><path d="M1065 949.6L1072 1170.7L1126 958.6Z" fill="#3d5e90" stroke="#3d5e90"></path><path d="M983 590.4L908 641.4L1035 763.5Z" fill="#39507d" stroke="#39507d"></path><path d="M908 641.4L863 754.5L1035 763.5Z" fill="#3d5e90" stroke="#3d5e90"></path><path d="M833 1024.6L863 902.5L805 1031.7Z" fill="#3c99dc" stroke="#3c99dc"></path><path d="M864 887.6L863 902.5L1065 949.6Z" fill="#3f89c9" stroke="#3f89c9"></path><path d="M1426 638.4L1473 560.4L1347 591.4Z" fill="#3c99dc" stroke="#3c99dc"></path><path d="M1347 591.4L1309 467.2L1261 588.3Z" fill="#3f89c9" stroke="#3f89c9"></path><path d="M1524 568.3L1473 560.4L1426 638.4Z" fill="#3c99dc" stroke="#3c99dc"></path><path d="M1355 435.3L1309 467.2L1347 591.4Z" fill="#3c99dc" stroke="#3c99dc"></path><path d="M1167 546.3L984 477.3L983 590.4Z" fill="#3d5e90" stroke="#3d5e90"></path><path d="M962 1130.8L1072 1170.7L1065 949.6Z" fill="#3e6599" stroke="#3e6599"></path><path d="M924 1121.7L962 1130.8L1065 949.6Z" fill="#3d5e90" stroke="#3d5e90"></path><path d="M1608 703.5L1524 568.3L1426 638.4Z" fill="#3c99dc" stroke="#3c99dc"></path><path d="M1473 560.4L1355 435.3L1347 591.4Z" fill="#3d5e90" stroke="#3d5e90"></path><path d="M1758 833.5L1608 703.5L1530 822.5Z" fill="#4082bf" stroke="#4082bf"></path><path d="M1530 822.5L1608 703.5L1426 638.4Z" fill="#407ab6" stroke="#407ab6"></path><path d="M1494 369.2L1355 435.3L1473 560.4Z" fill="#3d5e90" stroke="#3d5e90"></path><path d="M1223 378.2L984 477.3L1167 546.3Z" fill="#3e6599" stroke="#3e6599"></path><path d="M1223 378.2L1167 546.3L1309 467.2Z" fill="#3b5786" stroke="#3b5786"></path><path d="M983 590.4L835 474.3L908 641.4Z" fill="#4082bf" stroke="#4082bf"></path><path d="M833 1024.6L924 1121.7L1065 949.6Z" fill="#3c99dc" stroke="#3c99dc"></path><path d="M897 1268.8L1111 1291.8L1072 1170.7Z" fill="#3e6599" stroke="#3e6599"></path><path d="M772 793.5L863 902.5L864 887.6Z" fill="#39507d" stroke="#39507d"></path><path d="M863 902.5L833 1024.6L1065 949.6Z" fill="#407ab6" stroke="#407ab6"></path><path d="M1310 1074.7L1459 1186.7L1396 1028.6Z" fill="#4082bf" stroke="#4082bf"></path><path d="M1396 1028.6L1584 1146.7L1529 932.6Z" fill="#4073ac" stroke="#4073ac"></path><path d="M1529 932.6L1649 941.6L1530 822.5Z" fill="#3f6ca2" stroke="#3f6ca2"></path><path d="M1250 1268.8L1459 1186.7L1310 1074.7Z" fill="#3f6ca2" stroke="#3f6ca2"></path><path d="M1355 435.3L1223 378.2L1309 467.2Z" fill="#3e6599" stroke="#3e6599"></path><path d="M705 733.5L772 793.5L863 754.5Z" fill="#39507d" stroke="#39507d"></path><path d="M863 754.5L772 793.5L864 887.6Z" fill="#4073ac" stroke="#4073ac"></path><path d="M771 559.4L863 754.5L908 641.4Z" fill="#3c99dc" stroke="#3c99dc"></path><path d="M1111 1291.8L1250 1268.8L1072 1170.7Z" fill="#3e91d2" stroke="#3e91d2"></path><path d="M1072 1170.7L1250 1268.8L1310 1074.7Z" fill="#39507d" stroke="#39507d"></path><path d="M1584 1146.7L1649 941.6L1529 932.6Z" fill="#3d5e90" stroke="#3d5e90"></path><path d="M793 1035.7L805 1031.7L678 920.6Z" fill="#3d5e90" stroke="#3d5e90"></path><path d="M833 1024.6L805 1031.7L924 1121.7Z" fill="#3c99dc" stroke="#3c99dc"></path><path d="M678 920.6L805 1031.7L863 902.5Z" fill="#3c99dc" stroke="#3c99dc"></path><path d="M805 1031.7L793 1035.7L924 1121.7Z" fill="#3e91d2" stroke="#3e91d2"></path><path d="M897 1268.8L962 1130.8L924 1121.7Z" fill="#4073ac" stroke="#4073ac"></path><path d="M897 1268.8L1072 1170.7L962 1130.8Z" fill="#3f89c9" stroke="#3f89c9"></path><path d="M1515 1237.8L1584 1146.7L1459 1186.7Z" fill="#3c99dc" stroke="#3c99dc"></path><path d="M1459 1186.7L1584 1146.7L1396 1028.6Z" fill="#3f6ca2" stroke="#3f6ca2"></path><path d="M1111 1291.8L1183 1314.8L1250 1268.8Z" fill="#3f6ca2" stroke="#3f6ca2"></path><path d="M1250 1268.8L1467 1303.8L1459 1186.7Z" fill="#3b5786" stroke="#3b5786"></path><path d="M1207 1325.8L1247 1316.8L1250 1268.8Z" fill="#3f6ca2" stroke="#3f6ca2"></path><path d="M1110 1427.9L1207 1325.8L1183 1314.8Z" fill="#3c99dc" stroke="#3c99dc"></path><path d="M1183 1314.8L1207 1325.8L1250 1268.8Z" fill="#3d5e90" stroke="#3d5e90"></path><path d="M1355 435.3L1243 315.2L1223 378.2Z" fill="#407ab6" stroke="#407ab6"></path><path d="M1223 378.2L1117 292.2L984 477.3Z" fill="#3e91d2" stroke="#3e91d2"></path><path d="M1358 281.2L1243 315.2L1355 435.3Z" fill="#3f89c9" stroke="#3f89c9"></path><path d="M1467 1303.8L1515 1237.8L1459 1186.7Z" fill="#3d5e90" stroke="#3d5e90"></path><path d="M921 344.2L835 474.3L984 477.3Z" fill="#3f6ca2" stroke="#3f6ca2"></path><path d="M984 477.3L835 474.3L983 590.4Z" fill="#4073ac" stroke="#4073ac"></path><path d="M835 474.3L771 559.4L908 641.4Z" fill="#3e91d2" stroke="#3e91d2"></path><path d="M771 559.4L705 733.5L863 754.5Z" fill="#407ab6" stroke="#407ab6"></path><path d="M772 793.5L678 920.6L863 902.5Z" fill="#4082bf" stroke="#4082bf"></path><path d="M1773 941.6L1732 892.5L1649 941.6Z" fill="#39507d" stroke="#39507d"></path><path d="M1649 941.6L1732 892.5L1530 822.5Z" fill="#4073ac" stroke="#4073ac"></path><path d="M1705 564.3L1494 369.2L1524 568.3Z" fill="#3d5e90" stroke="#3d5e90"></path><path d="M705 733.5L694 827.5L772 793.5Z" fill="#3d5e90" stroke="#3d5e90"></path><path d="M1696 576.4L1524 568.3L1608 703.5Z" fill="#3d5e90" stroke="#3d5e90"></path><path d="M1524 568.3L1494 369.2L1473 560.4Z" fill="#3b5786" stroke="#3b5786"></path><path d="M1789 654.4L1696 576.4L1608 703.5Z" fill="#3f89c9" stroke="#3f89c9"></path><path d="M1189 273.2L1117 292.2L1223 378.2Z" fill="#3f89c9" stroke="#3f89c9"></path><path d="M1732 892.5L1758 833.5L1530 822.5Z" fill="#4073ac" stroke="#4073ac"></path><path d="M1849 1102.7L1649 941.6L1584 1146.7Z" fill="#3f89c9" stroke="#3f89c9"></path><path d="M1355 1399.8L1467 1303.8L1250 1268.8Z" fill="#4073ac" stroke="#4073ac"></path><path d="M1355 1399.8L1250 1268.8L1247 1316.8Z" fill="#39507d" stroke="#39507d"></path><path d="M507 827.5L678 920.6L694 827.5Z" fill="#3d5e90" stroke="#3d5e90"></path><path d="M694 827.5L678 920.6L772 793.5Z" fill="#3e6599" stroke="#3e6599"></path><path d="M698 1193.8L924 1121.7L793 1035.7Z" fill="#4073ac" stroke="#4073ac"></path><path d="M698 1193.8L897 1268.8L924 1121.7Z" fill="#3b5786" stroke="#3b5786"></path><path d="M1111 1291.8L1110 1427.9L1183 1314.8Z" fill="#4082bf" stroke="#4082bf"></path><path d="M1355 197.2L1189 273.2L1243 315.2Z" fill="#3f6ca2" stroke="#3f6ca2"></path><path d="M1243 315.2L1189 273.2L1223 378.2Z" fill="#3b5786" stroke="#3b5786"></path><path d="M835 474.3L769 500.3L771 559.4Z" fill="#3f89c9" stroke="#3f89c9"></path><path d="M575 635.4L614 718.5L705 733.5Z" fill="#3f6ca2" stroke="#3f6ca2"></path><path d="M799 403.2L769 500.3L835 474.3Z" fill="#3d5e90" stroke="#3d5e90"></path><path d="M1789 654.4L1705 564.3L1696 576.4Z" fill="#3e6599" stroke="#3e6599"></path><path d="M1696 576.4L1705 564.3L1524 568.3Z" fill="#3f89c9" stroke="#3f89c9"></path><path d="M1494 369.2L1358 281.2L1355 435.3Z" fill="#4073ac" stroke="#4073ac"></path><path d="M937 272.2L921 344.2L1117 292.2Z" fill="#3d5e90" stroke="#3d5e90"></path><path d="M1117 292.2L921 344.2L984 477.3Z" fill="#3b5786" stroke="#3b5786"></path><path d="M1732 892.5L1813 877.5L1758 833.5Z" fill="#3f89c9" stroke="#3f89c9"></path><path d="M1849 1102.7L1773 941.6L1649 941.6Z" fill="#3f6ca2" stroke="#3f6ca2"></path><path d="M1623 1337.8L1584 1146.7L1515 1237.8Z" fill="#39507d" stroke="#39507d"></path><path d="M678 920.6L668 1042.7L793 1035.7Z" fill="#3f6ca2" stroke="#3f6ca2"></path><path d="M1194 1472.9L1247 1316.8L1207 1325.8Z" fill="#4073ac" stroke="#4073ac"></path><path d="M1194 1472.9L1355 1399.8L1247 1316.8Z" fill="#3f89c9" stroke="#3f89c9"></path><path d="M921 344.2L799 403.2L835 474.3Z" fill="#4082bf" stroke="#4082bf"></path><path d="M1758 833.5L1789 654.4L1608 703.5Z" fill="#407ab6" stroke="#407ab6"></path><path d="M1908 700.4L1789 654.4L1758 833.5Z" fill="#3e6599" stroke="#3e6599"></path><path d="M1773 941.6L1813 877.5L1732 892.5Z" fill="#3b5786" stroke="#3b5786"></path><path d="M975 1410.9L1060 1406.8L1111 1291.8Z" fill="#407ab6" stroke="#407ab6"></path><path d="M575 635.4L705 733.5L771 559.4Z" fill="#3e91d2" stroke="#3e91d2"></path><path d="M705 733.5L614 718.5L694 827.5Z" fill="#3b5786" stroke="#3b5786"></path><path d="M678 920.6L517 1081.6L668 1042.7Z" fill="#4073ac" stroke="#4073ac"></path><path d="M668 456.3L771 559.4L769 500.3Z" fill="#3e6599" stroke="#3e6599"></path><path d="M830 328.2L790 383.2L799 403.2Z" fill="#3c99dc" stroke="#3c99dc"></path><path d="M799 403.2L668 456.3L769 500.3Z" fill="#3d5e90" stroke="#3d5e90"></path><path d="M1060 1406.8L1110 1427.9L1111 1291.8Z" fill="#3e91d2" stroke="#3e91d2"></path><path d="M1027 214.1L937 272.2L1117 292.2Z" fill="#4073ac" stroke="#4073ac"></path><path d="M921 344.2L830 328.2L799 403.2Z" fill="#3e91d2" stroke="#3e91d2"></path><path d="M937 272.2L830 328.2L921 344.2Z" fill="#3e6599" stroke="#3e6599"></path><path d="M897 1268.8L975 1410.9L1111 1291.8Z" fill="#407ab6" stroke="#407ab6"></path><path d="M1060 1406.8L994 1454.9L1110 1427.9Z" fill="#4073ac" stroke="#4073ac"></path><path d="M736 1379.9L975 1410.9L897 1268.8Z" fill="#3f6ca2" stroke="#3f6ca2"></path><path d="M1494 369.2L1471 241.2L1358 281.2Z" fill="#407ab6" stroke="#407ab6"></path><path d="M1358 281.2L1355 197.2L1243 315.2Z" fill="#4073ac" stroke="#4073ac"></path><path d="M1067 134.1L1027 214.1L1117 292.2Z" fill="#3f89c9" stroke="#3f89c9"></path><path d="M1585 208.2L1471 241.2L1494 369.2Z" fill="#3f89c9" stroke="#3f89c9"></path><path d="M1746 343.2L1494 369.2L1705 564.3Z" fill="#3c99dc" stroke="#3c99dc"></path><path d="M668 1042.7L698 1193.8L793 1035.7Z" fill="#39507d" stroke="#39507d"></path><path d="M1067 134.1L1117 292.2L1189 273.2Z" fill="#4082bf" stroke="#4082bf"></path><path d="M937 272.2L910 190.1L830 328.2Z" fill="#3e91d2" stroke="#3e91d2"></path><path d="M1471 241.2L1355 197.2L1358 281.2Z" fill="#3f6ca2" stroke="#3f6ca2"></path><path d="M1200 1600L1194 1472.9L1110 1427.9Z" fill="#3c99dc" stroke="#3c99dc"></path><path d="M1110 1427.9L1194 1472.9L1207 1325.8Z" fill="#4082bf" stroke="#4082bf"></path><path d="M1480 1508.9L1623 1337.8L1467 1303.8Z" fill="#407ab6" stroke="#407ab6"></path><path d="M1467 1303.8L1623 1337.8L1515 1237.8Z" fill="#3e91d2" stroke="#3e91d2"></path><path d="M1773 941.6L1935 905.5L1813 877.5Z" fill="#3c99dc" stroke="#3c99dc"></path><path d="M1667 1378.9L1623 1337.8L1648 1419.8Z" fill="#39507d" stroke="#39507d"></path><path d="M702 333.2L668 456.3L790 383.2Z" fill="#4082bf" stroke="#4082bf"></path><path d="M790 383.2L668 456.3L799 403.2Z" fill="#407ab6" stroke="#407ab6"></path><path d="M698 1193.8L710 1253.8L897 1268.8Z" fill="#3e91d2" stroke="#3e91d2"></path><path d="M668 456.3L575 635.4L771 559.4Z" fill="#407ab6" stroke="#407ab6"></path><path d="M614 718.5L507 827.5L694 827.5Z" fill="#3b5786" stroke="#3b5786"></path><path d="M668 1042.7L517 1081.6L698 1193.8Z" fill="#4073ac" stroke="#4073ac"></path><path d="M698 1193.8L517 1319.8L710 1253.8Z" fill="#39507d" stroke="#39507d"></path><path d="M941 1600L994 1454.9L932 1600Z" fill="#3f89c9" stroke="#3f89c9"></path><path d="M975 1410.9L994 1454.9L1060 1406.8Z" fill="#3b5786" stroke="#3b5786"></path><path d="M1820 1179.8L1849 1102.7L1584 1146.7Z" fill="#3f89c9" stroke="#3f89c9"></path><path d="M1923 832.5L1908 700.4L1758 833.5Z" fill="#3c99dc" stroke="#3c99dc"></path><path d="M1713 1309.8L1752 1265.8L1584 1146.7Z" fill="#39507d" stroke="#39507d"></path><path d="M1667 1378.9L1713 1309.8L1623 1337.8Z" fill="#3e6599" stroke="#3e6599"></path><path d="M1623 1337.8L1713 1309.8L1584 1146.7Z" fill="#3e91d2" stroke="#3e91d2"></path><path d="M1752 1265.8L1820 1179.8L1584 1146.7Z" fill="#3f89c9" stroke="#3f89c9"></path><path d="M1923 832.5L1758 833.5L1813 877.5Z" fill="#3e91d2" stroke="#3e91d2"></path><path d="M1789 654.4L1864 526.3L1705 564.3Z" fill="#3d5e90" stroke="#3d5e90"></path><path d="M1067 134.1L910 190.1L1027 214.1Z" fill="#3e91d2" stroke="#3e91d2"></path><path d="M1027 214.1L910 190.1L937 272.2Z" fill="#3e6599" stroke="#3e6599"></path><path d="M830 328.2L702 333.2L790 383.2Z" fill="#3c99dc" stroke="#3c99dc"></path><path d="M1471 241.2L1383 139.1L1355 197.2Z" fill="#4082bf" stroke="#4082bf"></path><path d="M1255 47.1L1067 134.1L1189 273.2Z" fill="#3f89c9" stroke="#3f89c9"></path><path d="M1583 122.1L1383 139.1L1471 241.2Z" fill="#4073ac" stroke="#4073ac"></path><path d="M1255 47.1L1189 273.2L1355 197.2Z" fill="#3e6599" stroke="#3e6599"></path><path d="M1935 905.5L1923 832.5L1813 877.5Z" fill="#3f89c9" stroke="#3f89c9"></path><path d="M466 788.5L507 827.5L614 718.5Z" fill="#3d5e90" stroke="#3d5e90"></path><path d="M720 172.1L702 333.2L830 328.2Z" fill="#3c99dc" stroke="#3c99dc"></path><path d="M668 456.3L504 585.4L575 635.4Z" fill="#407ab6" stroke="#407ab6"></path><path d="M1908 700.4L1864 526.3L1789 654.4Z" fill="#3e91d2" stroke="#3e91d2"></path><path d="M1834 434.3L1746 343.2L1705 564.3Z" fill="#4082bf" stroke="#4082bf"></path><path d="M1713 1309.8L1893 1263.8L1752 1265.8Z" fill="#3f89c9" stroke="#3f89c9"></path><path d="M1752 1265.8L1893 1263.8L1820 1179.8Z" fill="#4082bf" stroke="#4082bf"></path><path d="M1480 1508.9L1467 1303.8L1355 1399.8Z" fill="#3d5e90" stroke="#3d5e90"></path><path d="M1746 343.2L1585 208.2L1494 369.2Z" fill="#3f89c9" stroke="#3f89c9"></path><path d="M1820 1179.8L1879 1099.7L1849 1102.7Z" fill="#3b5786" stroke="#3b5786"></path><path d="M1849 1102.7L1900 1076.6L1773 941.6Z" fill="#3d5e90" stroke="#3d5e90"></path><path d="M1900 1076.6L1935 905.5L1773 941.6Z" fill="#3c99dc" stroke="#3c99dc"></path><path d="M1923 832.5L2120 656.5L1908 700.4Z" fill="#3f89c9" stroke="#3f89c9"></path><path d="M1893 1263.8L1900 1076.6L1879 1099.7Z" fill="#3f89c9" stroke="#3f89c9"></path><path d="M1879 1099.7L1900 1076.6L1849 1102.7Z" fill="#3f6ca2" stroke="#3f6ca2"></path><path d="M1893 1263.8L1879 1099.7L1820 1179.8Z" fill="#3f89c9" stroke="#3f89c9"></path><path d="M1864 526.3L1834 434.3L1705 564.3Z" fill="#3f6ca2" stroke="#3f6ca2"></path><path d="M1421 1554.9L1355 1399.8L1366 1600Z" fill="#407ab6" stroke="#407ab6"></path><path d="M1421 1554.9L1480 1508.9L1355 1399.8Z" fill="#4073ac" stroke="#4073ac"></path><path d="M708 1416.8L736 1379.9L623 1419.8Z" fill="#407ab6" stroke="#407ab6"></path><path d="M710 1253.8L736 1379.9L897 1268.8Z" fill="#3e6599" stroke="#3e6599"></path><path d="M1480 1508.9L1648 1419.8L1623 1337.8Z" fill="#407ab6" stroke="#407ab6"></path><path d="M1865 1517.9L1893 1263.8L1713 1309.8Z" fill="#3d5e90" stroke="#3d5e90"></path><path d="M474 895.5L517 1081.6L678 920.6Z" fill="#4082bf" stroke="#4082bf"></path><path d="M466 788.5L474 895.5L507 827.5Z" fill="#3e6599" stroke="#3e6599"></path><path d="M507 827.5L474 895.5L678 920.6Z" fill="#3b5786" stroke="#3b5786"></path><path d="M1830 279.2L1832 392.2L1956 287.2Z" fill="#3f89c9" stroke="#3f89c9"></path><path d="M2036 422.2L1832 392.2L1834 434.3Z" fill="#4073ac" stroke="#4073ac"></path><path d="M1834 434.3L1832 392.2L1746 343.2Z" fill="#3f89c9" stroke="#3f89c9"></path><path d="M1750 122.1L1601 139.1L1585 208.2Z" fill="#39507d" stroke="#39507d"></path><path d="M469 574.3L504 585.4L525 332.2Z" fill="#3c99dc" stroke="#3c99dc"></path><path d="M575 635.4L466 788.5L614 718.5Z" fill="#3e91d2" stroke="#3e91d2"></path><path d="M422 694.4L466 788.5L575 635.4Z" fill="#3b5786" stroke="#3b5786"></path><path d="M440 970.6L510 1091.7L517 1081.6Z" fill="#3f89c9" stroke="#3f89c9"></path><path d="M517 1081.6L510 1091.7L698 1193.8Z" fill="#3d5e90" stroke="#3d5e90"></path><path d="M1276 1600L1355 1399.8L1194 1472.9Z" fill="#4073ac" stroke="#4073ac"></path><path d="M1480 1508.9L1613 1600L1648 1419.8Z" fill="#3b5786" stroke="#3b5786"></path><path d="M941 1600L1200 1600L994 1454.9Z" fill="#3e91d2" stroke="#3e91d2"></path><path d="M994 1454.9L1200 1600L1110 1427.9Z" fill="#3f6ca2" stroke="#3f6ca2"></path><path d="M1354 0L1255 47.1L1383 139.1Z" fill="#3b5786" stroke="#3b5786"></path><path d="M1383 139.1L1255 47.1L1355 197.2Z" fill="#3c99dc" stroke="#3c99dc"></path><path d="M700 104.1L720 172.1L910 190.1Z" fill="#3e91d2" stroke="#3e91d2"></path><path d="M1200 1600L1276 1600L1194 1472.9Z" fill="#3e91d2" stroke="#3e91d2"></path><path d="M623 1419.8L736 1379.9L710 1253.8Z" fill="#3f6ca2" stroke="#3f6ca2"></path><path d="M932 1600L994 1454.9L975 1410.9Z" fill="#3b5786" stroke="#3b5786"></path><path d="M1750 122.1L1585 208.2L1746 343.2Z" fill="#3d5e90" stroke="#3d5e90"></path><path d="M1585 208.2L1583 122.1L1471 241.2Z" fill="#3b5786" stroke="#3b5786"></path><path d="M525 332.2L504 585.4L668 456.3Z" fill="#3d5e90" stroke="#3d5e90"></path><path d="M504 585.4L434 643.5L575 635.4Z" fill="#3b5786" stroke="#3b5786"></path><path d="M343 809.5L440 970.6L474 895.5Z" fill="#4073ac" stroke="#4073ac"></path><path d="M474 895.5L440 970.6L517 1081.6Z" fill="#3b5786" stroke="#3b5786"></path><path d="M343 809.5L474 895.5L466 788.5Z" fill="#3e91d2" stroke="#3e91d2"></path><path d="M1276 1600L1366 1600L1355 1399.8Z" fill="#3f6ca2" stroke="#3f6ca2"></path><path d="M1421 1554.9L1613 1600L1480 1508.9Z" fill="#3c99dc" stroke="#3c99dc"></path><path d="M1601 139.1L1583 122.1L1585 208.2Z" fill="#4073ac" stroke="#4073ac"></path><path d="M720 172.1L632 286.2L702 333.2Z" fill="#407ab6" stroke="#407ab6"></path><path d="M702 333.2L575 302.2L668 456.3Z" fill="#3e6599" stroke="#3e6599"></path><path d="M720 172.1L830 328.2L910 190.1Z" fill="#3e6599" stroke="#3e6599"></path><path d="M469 574.3L434 643.5L504 585.4Z" fill="#39507d" stroke="#39507d"></path><path d="M1900 1076.6L2014 927.5L1935 905.5Z" fill="#3b5786" stroke="#3b5786"></path><path d="M1935 905.5L2014 927.5L1923 832.5Z" fill="#39507d" stroke="#39507d"></path><path d="M2082 444.3L2036 422.2L1864 526.3Z" fill="#3e91d2" stroke="#3e91d2"></path><path d="M2093 1072.7L2014 927.5L1900 1076.6Z" fill="#3d5e90" stroke="#3d5e90"></path><path d="M434 643.5L422 694.4L575 635.4Z" fill="#407ab6" stroke="#407ab6"></path><path d="M1713 1309.8L1667 1378.9L1865 1517.9Z" fill="#3b5786" stroke="#3b5786"></path><path d="M1995 1301.8L1893 1263.8L1987 1386.8Z" fill="#39507d" stroke="#39507d"></path><path d="M982 0L910 190.1L1067 134.1Z" fill="#3e91d2" stroke="#3e91d2"></path><path d="M1832 392.2L1830 279.2L1746 343.2Z" fill="#3f89c9" stroke="#3f89c9"></path><path d="M1608 0L1493 0L1583 122.1Z" fill="#3f89c9" stroke="#3f89c9"></path><path d="M2036 422.2L1834 434.3L1864 526.3Z" fill="#407ab6" stroke="#407ab6"></path><path d="M279 1164.7L475 1174.8L510 1091.7Z" fill="#3e91d2" stroke="#3e91d2"></path><path d="M510 1091.7L475 1174.8L698 1193.8Z" fill="#3f89c9" stroke="#3f89c9"></path><path d="M932 1600L975 1410.9L736 1379.9Z" fill="#39507d" stroke="#39507d"></path><path d="M504 34.1L575 302.2L632 286.2Z" fill="#4073ac" stroke="#4073ac"></path><path d="M632 286.2L575 302.2L702 333.2Z" fill="#3c99dc" stroke="#3c99dc"></path><path d="M469 574.3L365 488.3L434 643.5Z" fill="#407ab6" stroke="#407ab6"></path><path d="M708 1416.8L932 1600L736 1379.9Z" fill="#4073ac" stroke="#4073ac"></path><path d="M1354 0L1108 0L1255 47.1Z" fill="#3f89c9" stroke="#3f89c9"></path><path d="M1255 47.1L1108 0L1067 134.1Z" fill="#3e91d2" stroke="#3e91d2"></path><path d="M458 1208.8L476 1204.7L475 1174.8Z" fill="#4082bf" stroke="#4082bf"></path><path d="M475 1174.8L476 1204.7L698 1193.8Z" fill="#3f89c9" stroke="#3f89c9"></path><path d="M1448 0L1354 0L1383 139.1Z" fill="#3b5786" stroke="#3b5786"></path><path d="M517 1319.8L623 1419.8L710 1253.8Z" fill="#39507d" stroke="#39507d"></path><path d="M708 1416.8L720 1600L932 1600Z" fill="#3e91d2" stroke="#3e91d2"></path><path d="M1108 0L1041 0L1067 134.1Z" fill="#39507d" stroke="#39507d"></path><path d="M452 297.2L525 332.2L575 302.2Z" fill="#4073ac" stroke="#4073ac"></path><path d="M575 302.2L525 332.2L668 456.3Z" fill="#39507d" stroke="#39507d"></path><path d="M327 1270.8L458 1208.8L279 1164.7Z" fill="#3c99dc" stroke="#3c99dc"></path><path d="M476 1204.7L517 1319.8L698 1193.8Z" fill="#39507d" stroke="#39507d"></path><path d="M1493 0L1448 0L1383 139.1Z" fill="#4082bf" stroke="#4082bf"></path><path d="M1493 0L1383 139.1L1583 122.1Z" fill="#39507d" stroke="#39507d"></path><path d="M1041 0L982 0L1067 134.1Z" fill="#4082bf" stroke="#4082bf"></path><path d="M458 1208.8L517 1319.8L476 1204.7Z" fill="#3e6599" stroke="#3e6599"></path><path d="M1608 0L1583 122.1L1601 139.1Z" fill="#3c99dc" stroke="#3c99dc"></path><path d="M1366 1600L1613 1600L1421 1554.9Z" fill="#3e6599" stroke="#3e6599"></path><path d="M280 555.4L422 694.4L434 643.5Z" fill="#3b5786" stroke="#3b5786"></path><path d="M225 788.5L343 809.5L207 755.5Z" fill="#3e6599" stroke="#3e6599"></path><path d="M422 694.4L343 809.5L466 788.5Z" fill="#3b5786" stroke="#3b5786"></path><path d="M440 970.6L279 1164.7L510 1091.7Z" fill="#3f89c9" stroke="#3f89c9"></path><path d="M1830 279.2L1750 122.1L1746 343.2Z" fill="#4082bf" stroke="#4082bf"></path><path d="M738 0L700 104.1L910 190.1Z" fill="#4082bf" stroke="#4082bf"></path><path d="M720 172.1L700 104.1L632 286.2Z" fill="#3f6ca2" stroke="#3f6ca2"></path><path d="M517 1319.8L548 1414.9L623 1419.8Z" fill="#3e91d2" stroke="#3e91d2"></path><path d="M593 1532.9L720 1600L708 1416.8Z" fill="#407ab6" stroke="#407ab6"></path><path d="M430 1318.8L548 1414.9L517 1319.8Z" fill="#39507d" stroke="#39507d"></path><path d="M1995 1301.8L2093 1072.7L1900 1076.6Z" fill="#3d5e90" stroke="#3d5e90"></path><path d="M2120 656.5L1864 526.3L1908 700.4Z" fill="#4082bf" stroke="#4082bf"></path><path d="M1995 1301.8L1900 1076.6L1893 1263.8Z" fill="#3e91d2" stroke="#3e91d2"></path><path d="M1750 122.1L1608 0L1601 139.1Z" fill="#3f89c9" stroke="#3f89c9"></path><path d="M2120 656.5L1923 832.5L2162 739.5Z" fill="#3d5e90" stroke="#3d5e90"></path><path d="M1876 0L1854 0L1750 122.1Z" fill="#3c99dc" stroke="#3c99dc"></path><path d="M2093 1072.7L2120 958.6L2014 927.5Z" fill="#3f89c9" stroke="#3f89c9"></path><path d="M1865 1517.9L1667 1378.9L1648 1419.8Z" fill="#3f6ca2" stroke="#3f6ca2"></path><path d="M2036 422.2L1956 287.2L1832 392.2Z" fill="#407ab6" stroke="#407ab6"></path><path d="M1750 122.1L1854 0L1608 0Z" fill="#4082bf" stroke="#4082bf"></path><path d="M452 297.2L365 488.3L525 332.2Z" fill="#3f89c9" stroke="#3f89c9"></path><path d="M525 332.2L365 488.3L469 574.3Z" fill="#3c99dc" stroke="#3c99dc"></path><path d="M2162 739.5L1923 832.5L2014 927.5Z" fill="#3c99dc" stroke="#3c99dc"></path><path d="M593 1532.9L708 1416.8L623 1419.8Z" fill="#3e6599" stroke="#3e6599"></path><path d="M2214 780.5L2230 781.5L2224 775.5Z" fill="#3f89c9" stroke="#3f89c9"></path><path d="M2120 958.6L2140 895.6L2014 927.5Z" fill="#3d5e90" stroke="#3d5e90"></path><path d="M504 34.1L452 297.2L575 302.2Z" fill="#3f6ca2" stroke="#3f6ca2"></path><path d="M327 1270.8L430 1318.8L458 1208.8Z" fill="#3e6599" stroke="#3e6599"></path><path d="M458 1208.8L430 1318.8L517 1319.8Z" fill="#3b5786" stroke="#3b5786"></path><path d="M548 1414.9L593 1532.9L623 1419.8Z" fill="#407ab6" stroke="#407ab6"></path><path d="M1613 1600L1737 1600L1648 1419.8Z" fill="#3e91d2" stroke="#3e91d2"></path><path d="M2162 739.5L2135 635.4L2120 656.5Z" fill="#4073ac" stroke="#4073ac"></path><path d="M2120 656.5L2082 444.3L1864 526.3Z" fill="#3e91d2" stroke="#3e91d2"></path><path d="M579 1600L593 1532.9L461 1600Z" fill="#4073ac" stroke="#4073ac"></path><path d="M2082 444.3L2013 315.2L2036 422.2Z" fill="#39507d" stroke="#39507d"></path><path d="M2036 422.2L2013 315.2L1956 287.2Z" fill="#3f89c9" stroke="#3f89c9"></path><path d="M1876 0L1750 122.1L1830 279.2Z" fill="#3d5e90" stroke="#3d5e90"></path><path d="M2135 635.4L2082 444.3L2120 656.5Z" fill="#3f89c9" stroke="#3f89c9"></path><path d="M2140 895.6L2162 739.5L2014 927.5Z" fill="#407ab6" stroke="#407ab6"></path><path d="M1737 1600L1865 1517.9L1648 1419.8Z" fill="#39507d" stroke="#39507d"></path><path d="M982 0L738 0L910 190.1Z" fill="#4073ac" stroke="#4073ac"></path><path d="M700 104.1L504 34.1L632 286.2Z" fill="#3f6ca2" stroke="#3f6ca2"></path><path d="M1865 1517.9L1987 1386.8L1893 1263.8Z" fill="#4073ac" stroke="#4073ac"></path><path d="M1995 1301.8L2213 1141.8L2093 1072.7Z" fill="#3e6599" stroke="#3e6599"></path><path d="M738 0L734 0L700 104.1Z" fill="#3e6599" stroke="#3e6599"></path><path d="M238 557.3L280 555.4L162 415.2Z" fill="#3f89c9" stroke="#3f89c9"></path><path d="M365 488.3L280 555.4L434 643.5Z" fill="#4073ac" stroke="#4073ac"></path><path d="M343 809.5L243 963.6L440 970.6Z" fill="#407ab6" stroke="#407ab6"></path><path d="M1737 1600L1808 1600L1865 1517.9Z" fill="#3c99dc" stroke="#3c99dc"></path><path d="M1865 1517.9L2018 1420.9L1987 1386.8Z" fill="#3e91d2" stroke="#3e91d2"></path><path d="M2135 635.4L2153 527.4L2082 444.3Z" fill="#3e91d2" stroke="#3e91d2"></path><path d="M2224 337.2L2018 250.2L2013 315.2Z" fill="#407ab6" stroke="#407ab6"></path><path d="M2264 442.3L2153 527.4L2330 601.4Z" fill="#3b5786" stroke="#3b5786"></path><path d="M225 788.5L243 963.6L343 809.5Z" fill="#3b5786" stroke="#3b5786"></path><path d="M2224 337.2L2013 315.2L2082 444.3Z" fill="#407ab6" stroke="#407ab6"></path><path d="M2013 315.2L2018 250.2L1956 287.2Z" fill="#4082bf" stroke="#4082bf"></path><path d="M207 755.5L343 809.5L422 694.4Z" fill="#3f6ca2" stroke="#3f6ca2"></path><path d="M279 1164.7L458 1208.8L475 1174.8Z" fill="#3f89c9" stroke="#3f89c9"></path><path d="M461 1600L593 1532.9L548 1414.9Z" fill="#3e6599" stroke="#3e6599"></path><path d="M243 963.6L279 1164.7L440 970.6Z" fill="#3f6ca2" stroke="#3f6ca2"></path><path d="M2140 895.6L2214 780.5L2162 739.5Z" fill="#3e6599" stroke="#3e6599"></path><path d="M2162 739.5L2330 601.4L2135 635.4Z" fill="#4082bf" stroke="#4082bf"></path><path d="M2214 780.5L2140 895.6L2230 781.5Z" fill="#3f6ca2" stroke="#3f6ca2"></path><path d="M2140 895.6L2395 904.5L2230 781.5Z" fill="#3e91d2" stroke="#3e91d2"></path><path d="M1906 1600L2018 1420.9L1865 1517.9Z" fill="#39507d" stroke="#39507d"></path><path d="M1987 1386.8L2067 1379.9L1995 1301.8Z" fill="#4073ac" stroke="#4073ac"></path><path d="M405 1438.9L548 1414.9L430 1318.8Z" fill="#4082bf" stroke="#4082bf"></path><path d="M593 1532.9L579 1600L720 1600Z" fill="#3d5e90" stroke="#3d5e90"></path><path d="M2140 895.6L2120 958.6L2218 1023.6Z" fill="#3d5e90" stroke="#3d5e90"></path><path d="M2214 780.5L2224 775.5L2162 739.5Z" fill="#3d5e90" stroke="#3d5e90"></path><path d="M280 555.4L207 755.5L422 694.4Z" fill="#39507d" stroke="#39507d"></path><path d="M225 788.5L167 928.6L243 963.6Z" fill="#3b5786" stroke="#3b5786"></path><path d="M2218 1023.6L2120 958.6L2093 1072.7Z" fill="#407ab6" stroke="#407ab6"></path><path d="M2330 601.4L2153 527.4L2135 635.4Z" fill="#3c99dc" stroke="#3c99dc"></path><path d="M280 555.4L171 690.5L207 755.5Z" fill="#3e91d2" stroke="#3e91d2"></path><path d="M162 415.2L280 555.4L365 488.3Z" fill="#3e6599" stroke="#3e6599"></path><path d="M2098 1443.8L2067 1379.9L2018 1420.9Z" fill="#3f89c9" stroke="#3f89c9"></path><path d="M2018 1420.9L2067 1379.9L1987 1386.8Z" fill="#3b5786" stroke="#3b5786"></path><path d="M327 1270.8L405 1438.9L430 1318.8Z" fill="#3f6ca2" stroke="#3f6ca2"></path><path d="M2213 1141.8L2218 1023.6L2093 1072.7Z" fill="#3f89c9" stroke="#3f89c9"></path><path d="M1808 1600L1906 1600L1865 1517.9Z" fill="#4073ac" stroke="#4073ac"></path><path d="M1876 0L1830 279.2L2006 41.1Z" fill="#4073ac" stroke="#4073ac"></path><path d="M2067 1379.9L2213 1141.8L1995 1301.8Z" fill="#3e6599" stroke="#3e6599"></path><path d="M2218 1023.6L2395 904.5L2140 895.6Z" fill="#4082bf" stroke="#4082bf"></path><path d="M299 198.1L304 304.2L452 297.2Z" fill="#3e91d2" stroke="#3e91d2"></path><path d="M452 297.2L304 304.2L365 488.3Z" fill="#3b5786" stroke="#3b5786"></path><path d="M40 578.4L171 690.5L238 557.3Z" fill="#3f89c9" stroke="#3f89c9"></path><path d="M238 557.3L171 690.5L280 555.4Z" fill="#4073ac" stroke="#4073ac"></path><path d="M207 755.5L167 928.6L225 788.5Z" fill="#3d5e90" stroke="#3d5e90"></path><path d="M243 963.6L163 1026.7L279 1164.7Z" fill="#3d5e90" stroke="#3d5e90"></path><path d="M0 936.5L167 928.6L207 755.5Z" fill="#3b5786" stroke="#3b5786"></path><path d="M279 1164.7L233 1227.8L327 1270.8Z" fill="#3f6ca2" stroke="#3f6ca2"></path><path d="M327 1270.8L167 1448.8L405 1438.9Z" fill="#3d5e90" stroke="#3d5e90"></path><path d="M2006 41.1L1830 279.2L1956 287.2Z" fill="#4073ac" stroke="#4073ac"></path><path d="M163 1026.7L233 1227.8L279 1164.7Z" fill="#3f89c9" stroke="#3f89c9"></path><path d="M734 0L504 34.1L700 104.1Z" fill="#4082bf" stroke="#4082bf"></path><path d="M0 936.5L163 1026.7L167 928.6Z" fill="#407ab6" stroke="#407ab6"></path><path d="M167 928.6L163 1026.7L243 963.6Z" fill="#4073ac" stroke="#4073ac"></path><path d="M2080 1600L2098 1443.8L2018 1420.9Z" fill="#39507d" stroke="#39507d"></path><path d="M2067 1379.9L2141 1421.8L2213 1141.8Z" fill="#3f6ca2" stroke="#3f6ca2"></path><path d="M405 1438.9L461 1600L548 1414.9Z" fill="#3e6599" stroke="#3e6599"></path><path d="M412 1600L461 1600L405 1438.9Z" fill="#3f89c9" stroke="#3f89c9"></path><path d="M2344 1192.8L2267 1137.7L2213 1141.8Z" fill="#3d5e90" stroke="#3d5e90"></path><path d="M2213 1141.8L2267 1137.7L2218 1023.6Z" fill="#3e91d2" stroke="#3e91d2"></path><path d="M2251 1465.9L2141 1421.8L2236 1548.9Z" fill="#3d5e90" stroke="#3d5e90"></path><path d="M2098 1443.8L2141 1421.8L2067 1379.9Z" fill="#3c99dc" stroke="#3c99dc"></path><path d="M734 0L486 0L504 34.1Z" fill="#3e6599" stroke="#3e6599"></path><path d="M371 54.1L299 198.1L452 297.2Z" fill="#3f6ca2" stroke="#3f6ca2"></path><path d="M299 198.1L225 336.2L304 304.2Z" fill="#3d5e90" stroke="#3d5e90"></path><path d="M304 304.2L225 336.2L365 488.3Z" fill="#3c99dc" stroke="#3c99dc"></path><path d="M486 0L475 0L504 34.1Z" fill="#3b5786" stroke="#3b5786"></path><path d="M371 54.1L452 297.2L504 34.1Z" fill="#3f89c9" stroke="#3f89c9"></path><path d="M2018 250.2L2006 41.1L1956 287.2Z" fill="#3b5786" stroke="#3b5786"></path><path d="M2112 133.1L2006 41.1L2018 250.2Z" fill="#3f89c9" stroke="#3f89c9"></path><path d="M2264 442.3L2082 444.3L2153 527.4Z" fill="#3f6ca2" stroke="#3f6ca2"></path><path d="M2274 413.3L2264 442.3L2334 384.2Z" fill="#3e6599" stroke="#3e6599"></path><path d="M2330 601.4L2162 739.5L2224 775.5Z" fill="#39507d" stroke="#39507d"></path><path d="M0 1188.7L197 1281.8L233 1227.8Z" fill="#3b5786" stroke="#3b5786"></path><path d="M233 1227.8L197 1281.8L327 1270.8Z" fill="#4082bf" stroke="#4082bf"></path><path d="M328 1538.9L412 1600L405 1438.9Z" fill="#3b5786" stroke="#3b5786"></path><path d="M2264 442.3L2224 337.2L2082 444.3Z" fill="#3e91d2" stroke="#3e91d2"></path><path d="M2233 217.2L2112 133.1L2018 250.2Z" fill="#4082bf" stroke="#4082bf"></path><path d="M106 393.2L162 415.2L225 336.2Z" fill="#3e91d2" stroke="#3e91d2"></path><path d="M225 336.2L162 415.2L365 488.3Z" fill="#3d5e90" stroke="#3d5e90"></path><path d="M0 683.4L0 936.5L207 755.5Z" fill="#3e91d2" stroke="#3e91d2"></path><path d="M2264 442.3L2274 413.3L2224 337.2Z" fill="#4073ac" stroke="#4073ac"></path><path d="M2224 337.2L2233 217.2L2018 250.2Z" fill="#407ab6" stroke="#407ab6"></path><path d="M2330 601.4L2224 775.5L2230 781.5Z" fill="#3d5e90" stroke="#3d5e90"></path><path d="M2487 733.5L2330 601.4L2230 781.5Z" fill="#3d5e90" stroke="#3d5e90"></path><path d="M167 1448.8L328 1538.9L405 1438.9Z" fill="#4082bf" stroke="#4082bf"></path><path d="M475 0L371 54.1L504 34.1Z" fill="#3e6599" stroke="#3e6599"></path><path d="M176 163.2L106 393.2L225 336.2Z" fill="#3f6ca2" stroke="#3f6ca2"></path><path d="M1906 1600L2080 1600L2018 1420.9Z" fill="#3e91d2" stroke="#3e91d2"></path><path d="M2344 1192.8L2342 1144.7L2267 1137.7Z" fill="#3f89c9" stroke="#3f89c9"></path><path d="M2080 1600L2090 1600L2098 1443.8Z" fill="#3d5e90" stroke="#3d5e90"></path><path d="M2344 1192.8L2213 1141.8L2274 1392.8Z" fill="#4082bf" stroke="#4082bf"></path><path d="M2267 1137.7L2397 1067.6L2218 1023.6Z" fill="#3f6ca2" stroke="#3f6ca2"></path><path d="M2397 1067.6L2395 904.5L2218 1023.6Z" fill="#3f6ca2" stroke="#3f6ca2"></path><path d="M2334 384.2L2224 337.2L2274 413.3Z" fill="#3d5e90" stroke="#3d5e90"></path><path d="M2258 214.2L2233 217.2L2224 337.2Z" fill="#3d5e90" stroke="#3d5e90"></path><path d="M2112 133.1L2091 0L2006 41.1Z" fill="#3e91d2" stroke="#3e91d2"></path><path d="M2274 1392.8L2213 1141.8L2141 1421.8Z" fill="#4073ac" stroke="#4073ac"></path><path d="M2342 1144.7L2397 1067.6L2267 1137.7Z" fill="#3f89c9" stroke="#3f89c9"></path><path d="M176 163.2L225 336.2L299 198.1Z" fill="#39507d" stroke="#39507d"></path><path d="M162 415.2L40 578.4L238 557.3Z" fill="#4082bf" stroke="#4082bf"></path><path d="M2330 601.4L2334 384.2L2264 442.3Z" fill="#4073ac" stroke="#4073ac"></path><path d="M2488 496.3L2334 384.2L2330 601.4Z" fill="#4082bf" stroke="#4082bf"></path><path d="M2251 1465.9L2274 1392.8L2141 1421.8Z" fill="#3b5786" stroke="#3b5786"></path><path d="M2120 0L2091 0L2112 133.1Z" fill="#3f6ca2" stroke="#3f6ca2"></path><path d="M2006 41.1L2091 0L1876 0Z" fill="#3c99dc" stroke="#3c99dc"></path><path d="M39 418.3L40 578.4L162 415.2Z" fill="#3c99dc" stroke="#3c99dc"></path><path d="M0 1315.8L167 1448.8L197 1281.8Z" fill="#3c99dc" stroke="#3c99dc"></path><path d="M2481 1112.7L2397 1067.6L2342 1144.7Z" fill="#3d5e90" stroke="#3d5e90"></path><path d="M2481 1112.7L2342 1144.7L2344 1192.8Z" fill="#3f89c9" stroke="#3f89c9"></path><path d="M2334 384.2L2258 214.2L2224 337.2Z" fill="#3b5786" stroke="#3b5786"></path><path d="M2233 217.2L2250 200.1L2112 133.1Z" fill="#3e91d2" stroke="#3e91d2"></path><path d="M2258 214.2L2250 200.1L2233 217.2Z" fill="#3b5786" stroke="#3b5786"></path><path d="M2236 1548.9L2141 1421.8L2098 1443.8Z" fill="#4073ac" stroke="#4073ac"></path><path d="M2274 1392.8L2407 1269.8L2344 1192.8Z" fill="#3f89c9" stroke="#3f89c9"></path><path d="M0 1188.7L233 1227.8L163 1026.7Z" fill="#3d5e90" stroke="#3d5e90"></path><path d="M197 1281.8L167 1448.8L327 1270.8Z" fill="#3f89c9" stroke="#3f89c9"></path><path d="M328 1538.9L238 1600L412 1600Z" fill="#407ab6" stroke="#407ab6"></path><path d="M0 683.4L207 755.5L171 690.5Z" fill="#3f6ca2" stroke="#3f6ca2"></path><path d="M2186 67.1L2120 0L2112 133.1Z" fill="#4082bf" stroke="#4082bf"></path><path d="M0 657.5L171 690.5L40 578.4Z" fill="#3d5e90" stroke="#3d5e90"></path><path d="M0 657.5L0 683.4L171 690.5Z" fill="#4082bf" stroke="#4082bf"></path><path d="M475 0L306 0L371 54.1Z" fill="#3f6ca2" stroke="#3f6ca2"></path><path d="M371 54.1L306 0L299 198.1Z" fill="#3e91d2" stroke="#3e91d2"></path><path d="M0 510.3L0 657.5L40 578.4Z" fill="#3d5e90" stroke="#3d5e90"></path><path d="M2340 144.1L2186 67.1L2250 200.1Z" fill="#3f89c9" stroke="#3f89c9"></path><path d="M2250 200.1L2186 67.1L2112 133.1Z" fill="#3b5786" stroke="#3b5786"></path><path d="M306 0L176 163.2L299 198.1Z" fill="#3e6599" stroke="#3e6599"></path><path d="M106 393.2L39 418.3L162 415.2Z" fill="#3e6599" stroke="#3e6599"></path><path d="M0 936.5L0 1044.6L163 1026.7Z" fill="#39507d" stroke="#39507d"></path><path d="M0 375.2L39 418.3L106 393.2Z" fill="#3e91d2" stroke="#3e91d2"></path><path d="M167 1448.8L238 1600L328 1538.9Z" fill="#3e91d2" stroke="#3e91d2"></path><path d="M2090 1600L2236 1548.9L2098 1443.8Z" fill="#407ab6" stroke="#407ab6"></path><path d="M2251 1465.9L2333 1400.8L2274 1392.8Z" fill="#3e91d2" stroke="#3e91d2"></path><path d="M39 418.3L0 510.3L40 578.4Z" fill="#3d5e90" stroke="#3d5e90"></path><path d="M2316 1600L2333 1400.8L2251 1465.9Z" fill="#4073ac" stroke="#4073ac"></path><path d="M0 1044.6L0 1188.7L163 1026.7Z" fill="#3e6599" stroke="#3e6599"></path><path d="M167 1448.8L111 1600L238 1600Z" fill="#407ab6" stroke="#407ab6"></path><path d="M2333 1400.8L2407 1269.8L2274 1392.8Z" fill="#3f89c9" stroke="#3f89c9"></path><path d="M2560 871.5L2487 733.5L2395 904.5Z" fill="#407ab6" stroke="#407ab6"></path><path d="M2560 927.6L2395 904.5L2397 1067.6Z" fill="#3e6599" stroke="#3e6599"></path><path d="M2395 904.5L2487 733.5L2230 781.5Z" fill="#4082bf" stroke="#4082bf"></path><path d="M0 292.2L0 375.2L106 393.2Z" fill="#3c99dc" stroke="#3c99dc"></path><path d="M39 418.3L0 375.2L0 510.3Z" fill="#4073ac" stroke="#4073ac"></path><path d="M0 292.2L106 393.2L176 163.2Z" fill="#3b5786" stroke="#3b5786"></path><path d="M2407 1269.8L2481 1112.7L2344 1192.8Z" fill="#3b5786" stroke="#3b5786"></path><path d="M0 1188.7L0 1292.8L197 1281.8Z" fill="#3f89c9" stroke="#3f89c9"></path><path d="M123 0L104 142.1L176 163.2Z" fill="#3c99dc" stroke="#3c99dc"></path><path d="M2560 871.5L2517 706.4L2487 733.5Z" fill="#3f89c9" stroke="#3f89c9"></path><path d="M2487 733.5L2517 706.4L2330 601.4Z" fill="#3d5e90" stroke="#3d5e90"></path><path d="M2437 295.2L2340 144.1L2258 214.2Z" fill="#3f6ca2" stroke="#3f6ca2"></path><path d="M2258 214.2L2340 144.1L2250 200.1Z" fill="#3b5786" stroke="#3b5786"></path><path d="M0 1292.8L0 1315.8L197 1281.8Z" fill="#3e6599" stroke="#3e6599"></path><path d="M2517 706.4L2488 496.3L2330 601.4Z" fill="#39507d" stroke="#39507d"></path><path d="M2437 295.2L2258 214.2L2334 384.2Z" fill="#39507d" stroke="#39507d"></path><path d="M2186 67.1L2279 0L2120 0Z" fill="#39507d" stroke="#39507d"></path><path d="M104 142.1L0 292.2L176 163.2Z" fill="#407ab6" stroke="#407ab6"></path><path d="M2472 358.2L2437 295.2L2334 384.2Z" fill="#3d5e90" stroke="#3d5e90"></path><path d="M2488 496.3L2472 358.2L2334 384.2Z" fill="#3d5e90" stroke="#3d5e90"></path><path d="M2560 427.2L2472 358.2L2488 496.3Z" fill="#4073ac" stroke="#4073ac"></path><path d="M2560 927.6L2560 871.5L2395 904.5Z" fill="#3b5786" stroke="#3b5786"></path><path d="M2517 706.4L2560 654.4L2488 496.3Z" fill="#39507d" stroke="#39507d"></path><path d="M2433 0L2340 144.1L2560 146.2Z" fill="#39507d" stroke="#39507d"></path><path d="M2433 0L2279 0L2340 144.1Z" fill="#4082bf" stroke="#4082bf"></path><path d="M2340 144.1L2279 0L2186 67.1Z" fill="#3f89c9" stroke="#3f89c9"></path><path d="M2560 1309.8L2560 1220.8L2407 1269.8Z" fill="#4082bf" stroke="#4082bf"></path><path d="M2560 1220.8L2560 1138.7L2481 1112.7Z" fill="#407ab6" stroke="#407ab6"></path><path d="M2236 1548.9L2316 1600L2251 1465.9Z" fill="#3d5e90" stroke="#3d5e90"></path><path d="M2090 1600L2316 1600L2236 1548.9Z" fill="#3c99dc" stroke="#3c99dc"></path><path d="M0 1315.8L0 1400.9L167 1448.8Z" fill="#3e91d2" stroke="#3e91d2"></path><path d="M2560 1138.7L2560 927.6L2481 1112.7Z" fill="#39507d" stroke="#39507d"></path><path d="M2481 1112.7L2560 927.6L2397 1067.6Z" fill="#3e6599" stroke="#3e6599"></path><path d="M2560 871.5L2560 680.5L2517 706.4Z" fill="#4082bf" stroke="#4082bf"></path><path d="M54 1526.9L111 1600L167 1448.8Z" fill="#4082bf" stroke="#4082bf"></path><path d="M2560 680.5L2560 654.4L2517 706.4Z" fill="#3e91d2" stroke="#3e91d2"></path><path d="M0 1400.9L54 1526.9L167 1448.8Z" fill="#3f6ca2" stroke="#3f6ca2"></path><path d="M306 0L123 0L176 163.2Z" fill="#3f6ca2" stroke="#3f6ca2"></path><path d="M104 142.1L0 30.1L0 292.2Z" fill="#3f6ca2" stroke="#3f6ca2"></path><path d="M2560 654.4L2560 521.3L2488 496.3Z" fill="#3f6ca2" stroke="#3f6ca2"></path><path d="M2472 358.2L2560 170.1L2437 295.2Z" fill="#3e6599" stroke="#3e6599"></path><path d="M2560 1220.8L2481 1112.7L2407 1269.8Z" fill="#3d5e90" stroke="#3d5e90"></path><path d="M2560 521.3L2560 427.2L2488 496.3Z" fill="#4073ac" stroke="#4073ac"></path><path d="M2531 1378.9L2407 1269.8L2333 1400.8Z" fill="#3b5786" stroke="#3b5786"></path><path d="M2560 1499.9L2531 1378.9L2333 1400.8Z" fill="#4082bf" stroke="#4082bf"></path><path d="M2531 1378.9L2560 1309.8L2407 1269.8Z" fill="#407ab6" stroke="#407ab6"></path><path d="M0 1400.9L0 1600L54 1526.9Z" fill="#407ab6" stroke="#407ab6"></path><path d="M54 1526.9L0 1600L111 1600Z" fill="#4073ac" stroke="#4073ac"></path><path d="M2316 1600L2437 1600L2333 1400.8Z" fill="#3f89c9" stroke="#3f89c9"></path><path d="M123 0L0 30.1L104 142.1Z" fill="#3e91d2" stroke="#3e91d2"></path><path d="M2560 170.1L2340 144.1L2437 295.2Z" fill="#4082bf" stroke="#4082bf"></path><path d="M123 0L0 0L0 30.1Z" fill="#4073ac" stroke="#4073ac"></path><path d="M2560 427.2L2560 170.1L2472 358.2Z" fill="#3e91d2" stroke="#3e91d2"></path><path d="M2437 1600L2560 1499.9L2333 1400.8Z" fill="#3b5786" stroke="#3b5786"></path><path d="M2531 1378.9L2560 1499.9L2560 1309.8Z" fill="#39507d" stroke="#39507d"></path><path d="M2560 170.1L2560 146.2L2340 144.1Z" fill="#3f89c9" stroke="#3f89c9"></path><path d="M2437 1600L2560 1600L2560 1499.9Z" fill="#3b5786" stroke="#3b5786"></path><path d="M2560 146.2L2560 0L2433 0Z" fill="#4082bf" stroke="#4082bf"></path></g></svg>