<svg id="visual" viewBox="0 0 2560 1600" width="2560" height="1600" xmlns="http://www.w3.org/2000/svg" xmlns:xlink="http://www.w3.org/1999/xlink" version="1.1"><path d="M0 97L23.7 86.3C47.3 75.7 94.7 54.3 142 59.7C189.3 65 236.7 97 284.2 102.3C331.7 107.7 379.3 86.3 426.8 75.7C474.3 65 521.7 65 569 65C616.3 65 663.7 65 711 70.3C758.3 75.7 805.7 86.3 853.2 94.3C900.7 102.3 948.3 107.7 995.8 97C1043.3 86.3 1090.7 59.7 1138 65C1185.3 70.3 1232.7 107.7 1280 110.3C1327.3 113 1374.7 81 1422 67.7C1469.3 54.3 1516.7 59.7 1564.2 70.3C1611.7 81 1659.3 97 1706.8 110.3C1754.3 123.7 1801.7 134.3 1849 134.3C1896.3 134.3 1943.7 123.7 1991 107.7C2038.3 91.7 2085.7 70.3 2133.2 57C2180.7 43.7 2228.3 38.3 2275.8 46.3C2323.3 54.3 2370.7 75.7 2418 81C2465.3 86.3 2512.7 75.7 2536.3 70.3L2560 65L2560 0L2536.3 0C2512.7 0 2465.3 0 2418 0C2370.7 0 2323.3 0 2275.8 0C2228.3 0 2180.7 0 2133.2 0C2085.7 0 2038.3 0 1991 0C1943.7 0 1896.3 0 1849 0C1801.7 0 1754.3 0 1706.8 0C1659.3 0 1611.7 0 1564.2 0C1516.7 0 1469.3 0 1422 0C1374.7 0 1327.3 0 1280 0C1232.7 0 1185.3 0 1138 0C1090.7 0 1043.3 0 995.8 0C948.3 0 900.7 0 853.2 0C805.7 0 758.3 0 711 0C663.7 0 616.3 0 569 0C521.7 0 474.3 0 426.8 0C379.3 0 331.7 0 284.2 0C236.7 0 189.3 0 142 0C94.7 0 47.3 0 23.7 0L0 0Z" fill="#66d3fa"></path><path d="M0 257L23.7 225C47.3 193 94.7 129 142 115.7C189.3 102.3 236.7 139.7 284.2 158.3C331.7 177 379.3 177 426.8 185C474.3 193 521.7 209 569 201C616.3 193 663.7 161 711 153C758.3 145 805.7 161 853.2 179.7C900.7 198.3 948.3 219.7 995.8 201C1043.3 182.3 1090.7 123.7 1138 131.7C1185.3 139.7 1232.7 214.3 1280 241C1327.3 267.7 1374.7 246.3 1422 230.3C1469.3 214.3 1516.7 203.7 1564.2 195.7C1611.7 187.7 1659.3 182.3 1706.8 193C1754.3 203.7 1801.7 230.3 1849 241C1896.3 251.7 1943.7 246.3 1991 225C2038.3 203.7 2085.7 166.3 2133.2 163.7C2180.7 161 2228.3 193 2275.8 203.7C2323.3 214.3 2370.7 203.7 2418 206.3C2465.3 209 2512.7 225 2536.3 233L2560 241L2560 63L2536.3 68.3C2512.7 73.7 2465.3 84.3 2418 79C2370.7 73.7 2323.3 52.3 2275.8 44.3C2228.3 36.3 2180.7 41.7 2133.2 55C2085.7 68.3 2038.3 89.7 1991 105.7C1943.7 121.7 1896.3 132.3 1849 132.3C1801.7 132.3 1754.3 121.7 1706.8 108.3C1659.3 95 1611.7 79 1564.2 68.3C1516.7 57.7 1469.3 52.3 1422 65.7C1374.7 79 1327.3 111 1280 108.3C1232.7 105.7 1185.3 68.3 1138 63C1090.7 57.7 1043.3 84.3 995.8 95C948.3 105.7 900.7 100.3 853.2 92.3C805.7 84.3 758.3 73.7 711 68.3C663.7 63 616.3 63 569 63C521.7 63 474.3 63 426.8 73.7C379.3 84.3 331.7 105.7 284.2 100.3C236.7 95 189.3 63 142 57.7C94.7 52.3 47.3 73.7 23.7 84.3L0 95Z" fill="#5fc4ed"></path><path d="M0 369L23.7 337C47.3 305 94.7 241 142 249C189.3 257 236.7 337 284.2 353C331.7 369 379.3 321 426.8 297C474.3 273 521.7 273 569 294.3C616.3 315.7 663.7 358.3 711 358.3C758.3 358.3 805.7 315.7 853.2 299.7C900.7 283.7 948.3 294.3 995.8 273C1043.3 251.7 1090.7 198.3 1138 219.7C1185.3 241 1232.7 337 1280 366.3C1327.3 395.7 1374.7 358.3 1422 355.7C1469.3 353 1516.7 385 1564.2 401C1611.7 417 1659.3 417 1706.8 430.3C1754.3 443.7 1801.7 470.3 1849 462.3C1896.3 454.3 1943.7 411.7 1991 382.3C2038.3 353 2085.7 337 2133.2 331.7C2180.7 326.3 2228.3 331.7 2275.8 355.7C2323.3 379.7 2370.7 422.3 2418 417C2465.3 411.7 2512.7 358.3 2536.3 331.7L2560 305L2560 239L2536.3 231C2512.7 223 2465.3 207 2418 204.3C2370.7 201.7 2323.3 212.3 2275.8 201.7C2228.3 191 2180.7 159 2133.2 161.7C2085.7 164.3 2038.3 201.7 1991 223C1943.7 244.3 1896.3 249.7 1849 239C1801.7 228.3 1754.3 201.7 1706.8 191C1659.3 180.3 1611.7 185.7 1564.2 193.7C1516.7 201.7 1469.3 212.3 1422 228.3C1374.7 244.3 1327.3 265.7 1280 239C1232.7 212.3 1185.3 137.7 1138 129.7C1090.7 121.7 1043.3 180.3 995.8 199C948.3 217.7 900.7 196.3 853.2 177.7C805.7 159 758.3 143 711 151C663.7 159 616.3 191 569 199C521.7 207 474.3 191 426.8 183C379.3 175 331.7 175 284.2 156.3C236.7 137.7 189.3 100.3 142 113.7C94.7 127 47.3 191 23.7 223L0 255Z" fill="#59b4e0"></path><path d="M0 545L23.7 502.3C47.3 459.7 94.7 374.3 142 377C189.3 379.7 236.7 470.3 284.2 587.7C331.7 705 379.3 849 426.8 865C474.3 881 521.7 769 569 763.7C616.3 758.3 663.7 859.7 711 830.3C758.3 801 805.7 641 853.2 601C900.7 561 948.3 641 995.8 625C1043.3 609 1090.7 497 1138 494.3C1185.3 491.7 1232.7 598.3 1280 673C1327.3 747.7 1374.7 790.3 1422 782.3C1469.3 774.3 1516.7 715.7 1564.2 718.3C1611.7 721 1659.3 785 1706.8 779.7C1754.3 774.3 1801.7 699.7 1849 691.7C1896.3 683.7 1943.7 742.3 1991 721C2038.3 699.7 2085.7 598.3 2133.2 574.3C2180.7 550.3 2228.3 603.7 2275.8 619.7C2323.3 635.7 2370.7 614.3 2418 598.3C2465.3 582.3 2512.7 571.7 2536.3 566.3L2560 561L2560 303L2536.3 329.7C2512.7 356.3 2465.3 409.7 2418 415C2370.7 420.3 2323.3 377.7 2275.8 353.7C2228.3 329.7 2180.7 324.3 2133.2 329.7C2085.7 335 2038.3 351 1991 380.3C1943.7 409.7 1896.3 452.3 1849 460.3C1801.7 468.3 1754.3 441.7 1706.8 428.3C1659.3 415 1611.7 415 1564.2 399C1516.7 383 1469.3 351 1422 353.7C1374.7 356.3 1327.3 393.7 1280 364.3C1232.7 335 1185.3 239 1138 217.7C1090.7 196.3 1043.3 249.7 995.8 271C948.3 292.3 900.7 281.7 853.2 297.7C805.7 313.7 758.3 356.3 711 356.3C663.7 356.3 616.3 313.7 569 292.3C521.7 271 474.3 271 426.8 295C379.3 319 331.7 367 284.2 351C236.7 335 189.3 255 142 247C94.7 239 47.3 303 23.7 335L0 367Z" fill="#53a5d3"></path><path d="M0 1137L23.7 1113C47.3 1089 94.7 1041 142 1030.3C189.3 1019.7 236.7 1046.3 284.2 1078.3C331.7 1110.3 379.3 1147.7 426.8 1113C474.3 1078.3 521.7 971.7 569 961C616.3 950.3 663.7 1035.7 711 1065C758.3 1094.3 805.7 1067.7 853.2 1041C900.7 1014.3 948.3 987.7 995.8 985C1043.3 982.3 1090.7 1003.7 1138 1046.3C1185.3 1089 1232.7 1153 1280 1150.3C1327.3 1147.7 1374.7 1078.3 1422 1041C1469.3 1003.7 1516.7 998.3 1564.2 1019.7C1611.7 1041 1659.3 1089 1706.8 1102.3C1754.3 1115.7 1801.7 1094.3 1849 1105C1896.3 1115.7 1943.7 1158.3 1991 1126.3C2038.3 1094.3 2085.7 987.7 2133.2 931.7C2180.7 875.7 2228.3 870.3 2275.8 883.7C2323.3 897 2370.7 929 2418 955.7C2465.3 982.3 2512.7 1003.7 2536.3 1014.3L2560 1025L2560 559L2536.3 564.3C2512.7 569.7 2465.3 580.3 2418 596.3C2370.7 612.3 2323.3 633.7 2275.8 617.7C2228.3 601.7 2180.7 548.3 2133.2 572.3C2085.7 596.3 2038.3 697.7 1991 719C1943.7 740.3 1896.3 681.7 1849 689.7C1801.7 697.7 1754.3 772.3 1706.8 777.7C1659.3 783 1611.7 719 1564.2 716.3C1516.7 713.7 1469.3 772.3 1422 780.3C1374.7 788.3 1327.3 745.7 1280 671C1232.7 596.3 1185.3 489.7 1138 492.3C1090.7 495 1043.3 607 995.8 623C948.3 639 900.7 559 853.2 599C805.7 639 758.3 799 711 828.3C663.7 857.7 616.3 756.3 569 761.7C521.7 767 474.3 879 426.8 863C379.3 847 331.7 703 284.2 585.7C236.7 468.3 189.3 377.7 142 375C94.7 372.3 47.3 457.7 23.7 500.3L0 543Z" fill="#4e96c5"></path><path d="M0 1265L23.7 1235.7C47.3 1206.3 94.7 1147.7 142 1123.7C189.3 1099.7 236.7 1110.3 284.2 1139.7C331.7 1169 379.3 1217 426.8 1198.3C474.3 1179.7 521.7 1094.3 569 1086.3C616.3 1078.3 663.7 1147.7 711 1177C758.3 1206.3 805.7 1195.7 853.2 1171.7C900.7 1147.7 948.3 1110.3 995.8 1089C1043.3 1067.7 1090.7 1062.3 1138 1113C1185.3 1163.7 1232.7 1270.3 1280 1283.7C1327.3 1297 1374.7 1217 1422 1166.3C1469.3 1115.7 1516.7 1094.3 1564.2 1105C1611.7 1115.7 1659.3 1158.3 1706.8 1179.7C1754.3 1201 1801.7 1201 1849 1211.7C1896.3 1222.3 1943.7 1243.7 1991 1214.3C2038.3 1185 2085.7 1105 2133.2 1065C2180.7 1025 2228.3 1025 2275.8 1046.3C2323.3 1067.7 2370.7 1110.3 2418 1142.3C2465.3 1174.3 2512.7 1195.7 2536.3 1206.3L2560 1217L2560 1023L2536.3 1012.3C2512.7 1001.7 2465.3 980.3 2418 953.7C2370.7 927 2323.3 895 2275.8 881.7C2228.3 868.3 2180.7 873.7 2133.2 929.7C2085.7 985.7 2038.3 1092.3 1991 1124.3C1943.7 1156.3 1896.3 1113.7 1849 1103C1801.7 1092.3 1754.3 1113.7 1706.8 1100.3C1659.3 1087 1611.7 1039 1564.2 1017.7C1516.7 996.3 1469.3 1001.7 1422 1039C1374.7 1076.3 1327.3 1145.7 1280 1148.3C1232.7 1151 1185.3 1087 1138 1044.3C1090.7 1001.7 1043.3 980.3 995.8 983C948.3 985.7 900.7 1012.3 853.2 1039C805.7 1065.7 758.3 1092.3 711 1063C663.7 1033.7 616.3 948.3 569 959C521.7 969.7 474.3 1076.3 426.8 1111C379.3 1145.7 331.7 1108.3 284.2 1076.3C236.7 1044.3 189.3 1017.7 142 1028.3C94.7 1039 47.3 1087 23.7 1111L0 1135Z" fill="#4a88b7"></path><path d="M0 1313L23.7 1294.3C47.3 1275.7 94.7 1238.3 142 1227.7C189.3 1217 236.7 1233 284.2 1251.7C331.7 1270.3 379.3 1291.7 426.8 1267.7C474.3 1243.7 521.7 1174.3 569 1179.7C616.3 1185 663.7 1265 711 1289C758.3 1313 805.7 1281 853.2 1254.3C900.7 1227.7 948.3 1206.3 995.8 1195.7C1043.3 1185 1090.7 1185 1138 1222.3C1185.3 1259.7 1232.7 1334.3 1280 1331.7C1327.3 1329 1374.7 1249 1422 1201C1469.3 1153 1516.7 1137 1564.2 1163.7C1611.7 1190.3 1659.3 1259.7 1706.8 1278.3C1754.3 1297 1801.7 1265 1849 1267.7C1896.3 1270.3 1943.7 1307.7 1991 1286.3C2038.3 1265 2085.7 1185 2133.2 1137C2180.7 1089 2228.3 1073 2275.8 1086.3C2323.3 1099.7 2370.7 1142.3 2418 1182.3C2465.3 1222.3 2512.7 1259.7 2536.3 1278.3L2560 1297L2560 1215L2536.3 1204.3C2512.7 1193.7 2465.3 1172.3 2418 1140.3C2370.7 1108.3 2323.3 1065.7 2275.8 1044.3C2228.3 1023 2180.7 1023 2133.2 1063C2085.7 1103 2038.3 1183 1991 1212.3C1943.7 1241.7 1896.3 1220.3 1849 1209.7C1801.7 1199 1754.3 1199 1706.8 1177.7C1659.3 1156.3 1611.7 1113.7 1564.2 1103C1516.7 1092.3 1469.3 1113.7 1422 1164.3C1374.7 1215 1327.3 1295 1280 1281.7C1232.7 1268.3 1185.3 1161.7 1138 1111C1090.7 1060.3 1043.3 1065.7 995.8 1087C948.3 1108.3 900.7 1145.7 853.2 1169.7C805.7 1193.7 758.3 1204.3 711 1175C663.7 1145.7 616.3 1076.3 569 1084.3C521.7 1092.3 474.3 1177.7 426.8 1196.3C379.3 1215 331.7 1167 284.2 1137.7C236.7 1108.3 189.3 1097.7 142 1121.7C94.7 1145.7 47.3 1204.3 23.7 1233.7L0 1263Z" fill="#4679a9"></path><path d="M0 1425L23.7 1419.7C47.3 1414.3 94.7 1403.7 142 1406.3C189.3 1409 236.7 1425 284.2 1419.7C331.7 1414.3 379.3 1387.7 426.8 1363.7C474.3 1339.7 521.7 1318.3 569 1329C616.3 1339.7 663.7 1382.3 711 1387.7C758.3 1393 805.7 1361 853.2 1326.3C900.7 1291.7 948.3 1254.3 995.8 1257C1043.3 1259.7 1090.7 1302.3 1138 1350.3C1185.3 1398.3 1232.7 1451.7 1280 1446.3C1327.3 1441 1374.7 1377 1422 1345C1469.3 1313 1516.7 1313 1564.2 1329C1611.7 1345 1659.3 1377 1706.8 1377C1754.3 1377 1801.7 1345 1849 1350.3C1896.3 1355.7 1943.7 1398.3 1991 1387.7C2038.3 1377 2085.7 1313 2133.2 1278.3C2180.7 1243.7 2228.3 1238.3 2275.8 1233C2323.3 1227.7 2370.7 1222.3 2418 1254.3C2465.3 1286.3 2512.7 1355.7 2536.3 1390.3L2560 1425L2560 1295L2536.3 1276.3C2512.7 1257.7 2465.3 1220.3 2418 1180.3C2370.7 1140.3 2323.3 1097.7 2275.8 1084.3C2228.3 1071 2180.7 1087 2133.2 1135C2085.7 1183 2038.3 1263 1991 1284.3C1943.7 1305.7 1896.3 1268.3 1849 1265.7C1801.7 1263 1754.3 1295 1706.8 1276.3C1659.3 1257.7 1611.7 1188.3 1564.2 1161.7C1516.7 1135 1469.3 1151 1422 1199C1374.7 1247 1327.3 1327 1280 1329.7C1232.7 1332.3 1185.3 1257.7 1138 1220.3C1090.7 1183 1043.3 1183 995.8 1193.7C948.3 1204.3 900.7 1225.7 853.2 1252.3C805.7 1279 758.3 1311 711 1287C663.7 1263 616.3 1183 569 1177.7C521.7 1172.3 474.3 1241.7 426.8 1265.7C379.3 1289.7 331.7 1268.3 284.2 1249.7C236.7 1231 189.3 1215 142 1225.7C94.7 1236.3 47.3 1273.7 23.7 1292.3L0 1311Z" fill="#426b9a"></path><path d="M0 1553L23.7 1550.3C47.3 1547.7 94.7 1542.3 142 1547.7C189.3 1553 236.7 1569 284.2 1566.3C331.7 1563.7 379.3 1542.3 426.8 1529C474.3 1515.7 521.7 1510.3 569 1507.7C616.3 1505 663.7 1505 711 1499.7C758.3 1494.3 805.7 1483.7 853.2 1478.3C900.7 1473 948.3 1473 995.8 1478.3C1043.3 1483.7 1090.7 1494.3 1138 1513C1185.3 1531.7 1232.7 1558.3 1280 1563.7C1327.3 1569 1374.7 1553 1422 1550.3C1469.3 1547.7 1516.7 1558.3 1564.2 1550.3C1611.7 1542.3 1659.3 1515.7 1706.8 1497C1754.3 1478.3 1801.7 1467.7 1849 1475.7C1896.3 1483.7 1943.7 1510.3 1991 1529C2038.3 1547.7 2085.7 1558.3 2133.2 1566.3C2180.7 1574.3 2228.3 1579.7 2275.8 1571.7C2323.3 1563.7 2370.7 1542.3 2418 1542.3C2465.3 1542.3 2512.7 1563.7 2536.3 1574.3L2560 1585L2560 1423L2536.3 1388.3C2512.7 1353.7 2465.3 1284.3 2418 1252.3C2370.7 1220.3 2323.3 1225.7 2275.8 1231C2228.3 1236.3 2180.7 1241.7 2133.2 1276.3C2085.7 1311 2038.3 1375 1991 1385.7C1943.7 1396.3 1896.3 1353.7 1849 1348.3C1801.7 1343 1754.3 1375 1706.8 1375C1659.3 1375 1611.7 1343 1564.2 1327C1516.7 1311 1469.3 1311 1422 1343C1374.7 1375 1327.3 1439 1280 1444.3C1232.7 1449.7 1185.3 1396.3 1138 1348.3C1090.7 1300.3 1043.3 1257.7 995.8 1255C948.3 1252.3 900.7 1289.7 853.2 1324.3C805.7 1359 758.3 1391 711 1385.7C663.7 1380.3 616.3 1337.7 569 1327C521.7 1316.3 474.3 1337.7 426.8 1361.7C379.3 1385.7 331.7 1412.3 284.2 1417.7C236.7 1423 189.3 1407 142 1404.3C94.7 1401.7 47.3 1412.3 23.7 1417.7L0 1423Z" fill="#3d5d8c"></path><path d="M0 1601L23.7 1601C47.3 1601 94.7 1601 142 1601C189.3 1601 236.7 1601 284.2 1601C331.7 1601 379.3 1601 426.8 1601C474.3 1601 521.7 1601 569 1601C616.3 1601 663.7 1601 711 1601C758.3 1601 805.7 1601 853.2 1601C900.7 1601 948.3 1601 995.8 1601C1043.3 1601 1090.7 1601 1138 1601C1185.3 1601 1232.7 1601 1280 1601C1327.3 1601 1374.7 1601 1422 1601C1469.3 1601 1516.7 1601 1564.2 1601C1611.7 1601 1659.3 1601 1706.8 1601C1754.3 1601 1801.7 1601 1849 1601C1896.3 1601 1943.7 1601 1991 1601C2038.3 1601 2085.7 1601 2133.2 1601C2180.7 1601 2228.3 1601 2275.8 1601C2323.3 1601 2370.7 1601 2418 1601C2465.3 1601 2512.7 1601 2536.3 1601L2560 1601L2560 1583L2536.3 1572.3C2512.7 1561.7 2465.3 1540.3 2418 1540.3C2370.7 1540.3 2323.3 1561.7 2275.8 1569.7C2228.3 1577.7 2180.7 1572.3 2133.2 1564.3C2085.7 1556.3 2038.3 1545.7 1991 1527C1943.7 1508.3 1896.3 1481.7 1849 1473.7C1801.7 1465.7 1754.3 1476.3 1706.8 1495C1659.3 1513.7 1611.7 1540.3 1564.2 1548.3C1516.7 1556.3 1469.3 1545.7 1422 1548.3C1374.7 1551 1327.3 1567 1280 1561.7C1232.7 1556.3 1185.3 1529.7 1138 1511C1090.7 1492.3 1043.3 1481.7 995.8 1476.3C948.3 1471 900.7 1471 853.2 1476.3C805.7 1481.7 758.3 1492.3 711 1497.7C663.7 1503 616.3 1503 569 1505.7C521.7 1508.3 474.3 1513.7 426.8 1527C379.3 1540.3 331.7 1561.7 284.2 1564.3C236.7 1567 189.3 1551 142 1545.7C94.7 1540.3 47.3 1545.7 23.7 1548.3L0 1551Z" fill="#39507d"></path></svg>